<svg width="473" height="93" viewBox="0 0 473 93" fill="none" xmlns="http://www.w3.org/2000/svg">
<path d="M28.586 36.9996V36.8983C28.6198 36.8307 28.6536 36.6955 28.6536 36.5266C28.6874 36.3576 28.6874 36.2225 28.6874 36.0873C28.6874 35.5805 28.6198 35.006 28.4846 34.3978C28.3495 33.7558 28.0792 33.0125 27.6737 32.0663L24.7002 25.3422C23.7541 25.3084 22.5377 25.3084 20.9833 25.3084H12.2656C11.0492 25.3084 9.93414 25.3084 8.95424 25.3422L6.11592 31.8636C5.87939 32.4718 5.60907 33.1476 5.33876 33.891C5.06844 34.6006 4.89949 35.3439 4.89949 36.0873C4.89949 36.29 4.93328 36.459 4.96707 36.6279C5.00086 36.7631 5.06844 36.8983 5.06844 36.8983V36.9996H0V36.8983C0.304106 36.5942 0.675792 36.0197 1.11506 35.2426C1.55432 34.4316 2.06117 33.4179 2.6018 32.2353L16.7596 0.777176H18.7532L32.2015 31.0189C32.5056 31.7285 32.8097 32.4042 33.1476 33.08C33.4855 33.7558 33.8234 34.3303 34.1275 34.8709C34.3978 35.4115 34.6681 35.8508 34.9047 36.1887C35.1412 36.5604 35.3101 36.7969 35.3777 36.8983V36.9996H28.586ZM12.5697 23.1797C13.5158 23.1797 14.4957 23.1459 15.5094 23.1459C16.5231 23.1459 17.503 23.1459 18.4491 23.1121C19.429 23.1121 20.3413 23.1121 21.2537 23.1121C22.1322 23.0783 22.9431 23.0783 23.6865 23.0783L16.7259 7.33236L9.90035 23.1797H12.5697ZM55.6853 20.3076C55.6853 18.145 55.246 16.5231 54.3675 15.5094C53.5227 14.4958 52.3401 13.9889 50.8533 13.9889C50.3465 13.9889 49.7383 14.0903 49.0963 14.3268C48.4205 14.5295 47.7447 14.8337 47.0689 15.2053C46.3593 15.577 45.6835 16.0163 44.974 16.4893C44.2982 16.9962 43.6224 17.5368 43.0142 18.0775L42.9804 21.3213V27.3358C42.9804 28.7212 42.9804 29.9376 43.0142 30.9851C43.0479 32.0326 43.1155 32.9449 43.1831 33.722C43.2507 34.4654 43.3183 35.1074 43.3858 35.6143C43.4872 36.1211 43.5548 36.5604 43.6562 36.8983V36.9996H37.9457V36.8983C38.0471 36.5604 38.1485 36.1211 38.2498 35.6143C38.3174 35.1074 38.385 34.4654 38.4526 33.722C38.5201 32.9449 38.5539 32.0326 38.6215 30.9851C38.6553 29.9376 38.6553 28.7212 38.6553 27.3358V21.3213C38.6553 19.9359 38.6553 18.7195 38.6215 17.672C38.5539 16.6245 38.5201 15.7122 38.4526 14.935C38.385 14.1916 38.3174 13.5497 38.2498 13.0428C38.1485 12.536 38.0471 12.0967 37.9457 11.7588V11.6574H43.6562V11.7588C43.521 12.1643 43.4196 12.7049 43.3521 13.3131C43.2845 13.9551 43.2169 14.7999 43.1155 15.8136C43.7913 15.2391 44.5347 14.6985 45.3119 14.1241C46.089 13.5834 46.9 13.0766 47.7447 12.6373C48.5894 12.1981 49.4342 11.8264 50.3127 11.5561C51.1912 11.2857 52.0698 11.1506 52.9145 11.1506C54.1985 11.1506 55.2798 11.3871 56.1921 11.8264C57.0706 12.2656 57.814 12.8739 58.3884 13.5834C58.9629 14.3268 59.3683 15.1378 59.6049 16.0839C59.8752 16.9962 60.0103 17.9423 60.0103 18.9222V27.3358C60.0103 28.7212 60.0103 29.9376 60.0441 30.9851C60.0779 32.0326 60.1455 32.9449 60.2131 33.722C60.2806 34.4654 60.3482 35.1074 60.4158 35.6143C60.5172 36.1211 60.5848 36.5604 60.6861 36.8983V36.9996H54.9757V36.8983C55.077 36.5604 55.1784 36.1211 55.246 35.6143C55.3474 35.1074 55.4149 34.4654 55.4825 33.722C55.5501 32.9449 55.5839 32.0326 55.6177 30.9851C55.6853 29.9376 55.6853 28.7212 55.6853 27.3358V20.3076ZM76.3983 35.5467C76.8713 35.5467 77.3782 35.4453 77.8512 35.2764C78.3581 35.0736 78.8311 34.8371 79.2704 34.533C79.7097 34.1951 80.1489 33.8572 80.5882 33.4517C80.9937 33.0462 81.3992 32.607 81.7708 32.1677L82.0074 32.3029L80.3855 36.2901C80.1827 36.3914 79.9462 36.4928 79.6759 36.6279C79.3718 36.7631 79.0339 36.8983 78.6284 37.0334C78.2229 37.1686 77.7499 37.2699 77.2092 37.3713C76.6686 37.4389 76.0266 37.5065 75.2832 37.5065C73.0531 37.5065 71.3298 36.8983 70.1134 35.6818C68.897 34.4992 68.255 32.6408 68.255 30.1066V13.5834L64.0989 13.7186V11.5561C64.6057 11.5899 65.2477 11.6236 65.9573 11.6236C66.6669 11.6574 67.4103 11.6574 68.255 11.6574C68.255 10.4748 68.2212 9.4611 68.1874 8.54878C68.1536 7.63646 68.086 6.85931 68.0185 6.18352C67.9847 5.54152 67.9171 4.96709 67.8157 4.49403C67.7481 4.05477 67.6468 3.64929 67.5792 3.34518V3.24381H73.2896V3.34518C73.1883 3.64929 73.0869 4.05477 73.0193 4.49403C72.9517 4.96709 72.8504 5.54152 72.8166 6.18352C72.749 6.85931 72.7152 7.63647 72.6476 8.515C72.6139 9.42732 72.5801 10.4748 72.5801 11.6574C73.6275 11.6236 74.6412 11.6236 75.6211 11.5899C76.6348 11.5561 77.5471 11.5223 78.3581 11.4885C79.169 11.4547 79.8786 11.4209 80.4193 11.3871C80.9937 11.3195 81.3654 11.2857 81.5681 11.252L81.095 13.7862C80.2841 13.7524 79.3718 13.7524 78.4594 13.7186C77.6823 13.6848 76.77 13.651 75.7563 13.651C74.7088 13.6172 73.6613 13.6172 72.5801 13.5834V30.6134C72.5801 31.6271 72.6814 32.4718 72.918 33.1138C73.1207 33.722 73.4248 34.2289 73.7627 34.6006C74.1344 34.9723 74.5399 35.2088 74.9791 35.3439C75.4522 35.4791 75.8914 35.5467 76.3983 35.5467ZM84.7781 24.261C84.7781 22.4025 85.116 20.6793 85.8256 19.0911C86.5014 17.503 87.4475 16.1177 88.6639 14.935C89.8803 13.7862 91.3333 12.8739 92.9552 12.1981C94.6109 11.5561 96.4017 11.2182 98.294 11.2182C100.152 11.2182 101.909 11.5223 103.531 12.1305C105.187 12.7725 106.606 13.651 107.856 14.7661C109.073 15.9149 110.019 17.3003 110.729 18.9222C111.438 20.5779 111.776 22.4025 111.776 24.4299C111.776 26.1194 111.472 27.7413 110.897 29.3294C110.289 30.8837 109.411 32.2691 108.262 33.4855C107.113 34.7019 105.694 35.648 104.004 36.3576C102.349 37.0672 100.423 37.4389 98.2264 37.4389C96.4017 37.4389 94.6447 37.1348 93.0228 36.5266C91.3671 35.9184 89.9479 35.0398 88.7315 33.891C87.5151 32.7759 86.5352 31.3906 85.8256 29.7687C85.116 28.1468 84.7781 26.3221 84.7781 24.261ZM98.8008 35.648C99.9834 35.648 101.065 35.4115 102.045 34.9385C103.024 34.4654 103.869 33.8234 104.579 32.9449C105.288 32.0663 105.829 30.9851 106.235 29.7349C106.64 28.4847 106.809 27.0655 106.809 25.4774C106.809 23.7203 106.64 22.0646 106.268 20.5441C105.863 18.9898 105.322 17.672 104.545 16.5569C103.802 15.4419 102.856 14.5971 101.74 13.9551C100.592 13.3131 99.2739 13.009 97.7533 13.009C96.5707 13.009 95.4894 13.2455 94.5095 13.6848C93.5634 14.1579 92.7187 14.7999 91.9753 15.6784C91.2657 16.5231 90.7251 17.5706 90.3196 18.8208C89.9141 20.071 89.7114 21.4902 89.7114 23.0783C89.7114 24.8354 89.9141 26.4911 90.3196 28.0454C90.6913 29.5659 91.2657 30.9175 92.0091 32.0326C92.7862 33.1814 93.7324 34.0599 94.8474 34.6681C95.9963 35.3102 97.314 35.648 98.8008 35.648ZM134.314 20.3076C134.314 18.145 133.874 16.5231 132.996 15.5094C132.151 14.4958 130.968 13.9889 129.482 13.9889C128.975 13.9889 128.367 14.0903 127.725 14.3268C127.049 14.5295 126.373 14.8337 125.697 15.2053C124.988 15.577 124.312 16.0163 123.602 16.4893C122.927 16.9962 122.251 17.5368 121.643 18.0775L121.609 21.3213V27.3358C121.609 28.7212 121.609 29.9376 121.643 30.9851C121.676 32.0326 121.744 32.9449 121.812 33.722C121.879 34.4654 121.947 35.1074 122.014 35.6143C122.116 36.1211 122.183 36.5604 122.285 36.8983V36.9996H116.574V36.8983C116.675 36.5604 116.777 36.1211 116.844 35.6143C116.946 35.1074 117.013 34.4654 117.081 33.722C117.149 32.9449 117.182 32.0326 117.216 30.9851C117.284 29.9376 117.284 28.7212 117.284 27.3358V21.3213C117.284 19.9359 117.284 18.7195 117.216 17.672C117.182 16.6245 117.149 15.7122 117.081 14.935C117.013 14.1916 116.946 13.5497 116.844 13.0428C116.777 12.536 116.675 12.0967 116.574 11.7588V11.6574H122.285V11.7588C122.149 12.1643 122.048 12.7049 121.98 13.3131C121.913 13.9551 121.845 14.7999 121.744 15.8136C122.42 15.2391 123.163 14.6985 123.94 14.1241C124.717 13.5834 125.528 13.0766 126.373 12.6373C127.218 12.1981 128.063 11.8264 128.941 11.5561C129.82 11.2857 130.698 11.1506 131.509 11.1506C132.827 11.1506 133.908 11.3871 134.787 11.8264C135.699 12.2656 136.442 12.8739 137.017 13.5834C137.591 14.3268 137.997 15.1378 138.233 16.0839C138.504 16.9962 138.639 17.9423 138.639 18.9222V27.3358C138.639 28.7212 138.639 29.9376 138.673 30.9851C138.706 32.0326 138.774 32.9449 138.841 33.722C138.875 34.4654 138.977 35.1074 139.044 35.6143C139.146 36.1211 139.213 36.5604 139.315 36.8983V36.9996H133.604V36.8983C133.705 36.5604 133.807 36.1211 133.874 35.6143C133.976 35.1074 134.043 34.4654 134.111 33.722C134.179 32.9449 134.212 32.0326 134.246 30.9851C134.314 29.9376 134.314 28.7212 134.314 27.3358V20.3076ZM157.122 37.4389C155.297 37.4389 153.608 37.1686 151.986 36.5604C150.397 35.9859 149.012 35.1412 147.796 34.0261C146.613 32.9111 145.701 31.5595 144.991 29.9038C144.315 28.2819 143.977 26.3897 143.977 24.261C143.977 22.4025 144.282 20.6793 144.924 19.0911C145.532 17.503 146.41 16.1177 147.525 14.935C148.607 13.7862 149.924 12.8739 151.377 12.1981C152.864 11.5561 154.452 11.2182 156.176 11.2182C157.865 11.2182 159.453 11.4885 160.906 12.0967C162.359 12.6711 163.609 13.5159 164.691 14.6309C165.738 15.746 166.583 17.1313 167.191 18.787C167.833 20.4089 168.137 22.2674 168.205 24.3623C166.346 24.3285 164.488 24.3285 162.596 24.2947C160.737 24.2947 158.811 24.261 156.784 24.261C155.365 24.261 153.945 24.2947 152.594 24.2947C151.242 24.3285 150.026 24.3285 148.911 24.3623C149.012 26.0856 149.282 27.6399 149.722 29.0253C150.161 30.4107 150.769 31.5933 151.546 32.5732C152.29 33.5531 153.236 34.3302 154.317 34.8371C155.432 35.3777 156.682 35.648 158.068 35.648C159.014 35.648 159.926 35.5129 160.771 35.3102C161.616 35.0736 162.393 34.7695 163.069 34.364C163.778 33.9924 164.386 33.5193 164.927 32.9787C165.468 32.438 165.941 31.8636 166.312 31.2216L166.617 31.3906L164.792 35.7832C163.88 36.2563 162.832 36.6279 161.582 36.9658C160.365 37.2699 158.879 37.4389 157.122 37.4389ZM153.844 22.3349C155.5 22.3349 157.155 22.3349 158.811 22.3349C160.467 22.3349 161.987 22.3012 163.339 22.2336C163.17 20.8144 162.9 19.5304 162.494 18.3816C162.055 17.2327 161.548 16.2866 160.906 15.4756C160.264 14.6985 159.487 14.0903 158.608 13.651C157.764 13.2455 156.784 13.009 155.736 13.009C154.756 13.009 153.878 13.2118 153.101 13.651C152.29 14.0565 151.58 14.6647 151.006 15.4756C150.398 16.2528 149.924 17.2327 149.553 18.3816C149.215 19.5304 148.978 20.8144 148.911 22.3012C149.654 22.3349 150.465 22.3349 151.276 22.3349H153.844ZM173.645 9.66384C173.645 8.27847 173.611 7.06204 173.577 6.01456C173.543 4.96709 173.51 4.05477 173.442 3.27761C173.374 2.53424 173.307 1.89224 173.205 1.38539C173.138 0.878547 173.037 0.439283 172.935 0.101387V1.52588e-05H178.646V0.101387C178.544 0.439283 178.443 0.878547 178.375 1.38539C178.274 1.89224 178.206 2.53424 178.139 3.27761C178.071 4.05477 178.037 4.96709 178.004 6.01456C177.97 7.06204 177.936 8.27847 177.936 9.66384V27.3358C177.936 28.7212 177.97 29.9376 178.004 30.9851C178.037 32.0326 178.071 32.9449 178.139 33.722C178.206 34.4654 178.274 35.1074 178.375 35.6143C178.443 36.1211 178.544 36.5604 178.646 36.8983V36.9996H172.935V36.8983C173.037 36.5604 173.138 36.1211 173.205 35.6143C173.307 35.1074 173.374 34.4654 173.442 33.722C173.51 32.9449 173.543 32.0326 173.577 30.9851C173.611 29.9376 173.645 28.7212 173.645 27.3358V9.66384ZM185.843 9.66384C185.843 8.27847 185.809 7.06204 185.775 6.01456C185.741 4.96709 185.708 4.05477 185.64 3.27761C185.572 2.53424 185.505 1.89224 185.404 1.38539C185.336 0.878547 185.235 0.439283 185.133 0.101387V1.52588e-05H190.844V0.101387C190.742 0.439283 190.641 0.878547 190.573 1.38539C190.506 1.89224 190.404 2.53424 190.337 3.27761C190.269 4.05477 190.235 4.96709 190.202 6.01456C190.168 7.06204 190.168 8.27847 190.168 9.66384V27.3358C190.168 28.7212 190.168 29.9376 190.202 30.9851C190.235 32.0326 190.269 32.9449 190.337 33.722C190.404 34.4654 190.506 35.1074 190.573 35.6143C190.641 36.1211 190.742 36.5604 190.844 36.8983V36.9996H185.133V36.8983C185.235 36.5604 185.336 36.1211 185.404 35.6143C185.505 35.1074 185.572 34.4654 185.64 33.722C185.708 32.9449 185.741 32.0326 185.775 30.9851C185.809 29.9376 185.843 28.7212 185.843 27.3358V9.66384ZM195.912 29.7011C195.912 28.3833 196.182 27.2682 196.723 26.3221C197.264 25.3422 197.973 24.5313 198.852 23.8555C199.764 23.1797 200.778 22.639 201.893 22.1998C203.042 21.7943 204.224 21.4564 205.441 21.2199C206.657 20.9834 207.874 20.8144 209.056 20.713C210.239 20.6455 211.354 20.5779 212.334 20.5779V19.2939C212.334 18.2126 212.199 17.2665 211.895 16.4893C211.624 15.6784 211.219 15.0364 210.712 14.5295C210.205 13.9889 209.597 13.6172 208.887 13.3469C208.144 13.1104 207.367 12.9752 206.522 12.9752C205.914 12.9752 205.339 13.009 204.765 13.1104C204.191 13.2118 203.582 13.3807 202.974 13.6172C202.332 13.8538 201.69 14.1579 201.014 14.5633C200.305 14.935 199.595 15.4419 198.784 16.0501L198.548 15.9149L200.237 12.4346C200.778 12.1643 201.318 11.9615 201.825 11.8264C202.366 11.6574 202.907 11.5223 203.447 11.4209C203.988 11.3195 204.528 11.252 205.103 11.2182C205.677 11.1844 206.285 11.1506 206.894 11.1506C208.651 11.1506 210.104 11.3871 211.354 11.7926C212.57 12.1981 213.584 12.8063 214.361 13.5159C215.138 14.2592 215.713 15.104 216.084 16.0839C216.456 17.0638 216.625 18.145 216.625 19.2601V27.3358C216.625 28.7212 216.659 29.9376 216.693 30.9851C216.726 32.0326 216.794 32.9449 216.828 33.722C216.895 34.4654 216.963 35.1074 217.064 35.6143C217.166 36.1211 217.267 36.5604 217.335 36.8983V36.9996H211.895V36.8983C211.962 36.6279 212.03 36.3238 212.064 36.0197C212.097 35.6818 212.131 35.2764 212.165 34.8033C211.827 35.1074 211.422 35.4115 210.948 35.7494C210.475 36.0535 209.935 36.3238 209.36 36.5942C208.752 36.8307 208.076 37.0672 207.333 37.2024C206.59 37.3713 205.812 37.4389 204.934 37.4389C202.062 37.4389 199.832 36.7631 198.277 35.4115C196.689 34.0937 195.912 32.1677 195.912 29.7011ZM212.334 22.5039C210.813 22.5039 209.394 22.6053 208.009 22.7404C206.623 22.9094 205.373 23.2473 204.326 23.7203C203.244 24.2272 202.4 24.9367 201.758 25.8491C201.149 26.7614 200.812 27.9778 200.812 29.4983C200.812 31.4581 201.318 32.9449 202.265 33.9586C203.244 34.9723 204.596 35.4791 206.319 35.4791C207.096 35.4791 207.84 35.3777 208.482 35.1412C209.124 34.9385 209.698 34.6344 210.205 34.2965C210.712 33.9586 211.151 33.5869 211.489 33.2152C211.827 32.8097 212.097 32.4042 212.266 32.0326C212.3 31.3906 212.334 30.7148 212.334 29.9376V22.5039ZM267.208 23.7203C266.6 26.9979 265.316 29.7687 263.322 32.0326C264.978 33.722 266.701 35.2764 268.492 36.6955C270.249 38.1147 271.973 39.3649 273.696 40.4124C275.385 41.4599 277.041 42.3046 278.629 42.879C280.217 43.4872 281.67 43.7913 282.988 43.7913C283.495 43.7913 284.035 43.7238 284.576 43.6224V44.1968C284.373 44.2982 284.103 44.3996 283.799 44.5347C283.461 44.7037 283.056 44.8388 282.616 44.974C282.143 45.1091 281.569 45.2105 280.927 45.3119C280.319 45.4132 279.575 45.447 278.764 45.447C277.48 45.447 276.095 45.1767 274.608 44.6699C273.121 44.1292 271.567 43.3859 269.979 42.4398C268.357 41.4936 266.735 40.3448 265.113 39.0608C263.457 37.743 261.869 36.3238 260.281 34.7695C258.862 35.7494 257.274 36.4928 255.551 37.0334C253.827 37.5403 251.935 37.8106 249.908 37.8106C248.049 37.8106 246.394 37.5741 244.907 37.1348C243.42 36.6617 242.17 35.9859 241.156 35.1412C240.143 34.2965 239.332 33.249 238.791 32.0326C238.25 30.8161 237.98 29.4308 237.98 27.9102C237.98 26.4573 238.25 25.1733 238.791 24.0582C239.332 22.9094 240.041 21.8957 240.92 20.9834C241.798 20.071 242.812 19.2601 243.961 18.5167C245.11 17.7734 246.259 17.0638 247.441 16.3542C246.968 15.104 246.597 13.9213 246.326 12.7387C246.056 11.5561 245.921 10.441 245.921 9.39353C245.921 8.07574 246.157 6.8931 246.563 5.84562C247.002 4.79814 247.576 3.91961 248.286 3.17624C248.996 2.46666 249.874 1.89224 250.854 1.52055C251.834 1.11508 252.881 0.912331 253.996 0.912331C254.841 0.912331 255.618 1.01371 256.328 1.25024C257.071 1.48676 257.679 1.82466 258.22 2.29771C258.761 2.73698 259.2 3.3114 259.504 3.98719C259.808 4.66298 259.977 5.44014 259.977 6.31867C259.977 7.46752 259.741 8.44741 259.268 9.35973C258.795 10.2383 258.186 11.0492 257.409 11.7926C256.632 12.536 255.753 13.2455 254.774 13.8875C253.794 14.5295 252.746 15.1378 251.699 15.7798C252.239 16.9962 252.848 18.2464 253.591 19.5304C254.334 20.7806 255.145 22.0646 256.024 23.3148C256.869 24.5988 257.815 25.8153 258.828 27.0655C259.842 28.2819 260.89 29.4645 261.937 30.6134C262.748 29.5321 263.356 28.3157 263.829 26.9641C264.268 25.5787 264.505 24.092 264.505 22.4363C264.505 21.0509 264.404 19.9021 264.268 18.956C264.1 18.0437 263.931 17.2327 263.795 16.5907V16.4893H268.222V16.5907C268.12 16.9624 268.019 17.4017 267.985 17.9085C267.918 18.3816 267.647 20.7468 267.58 21.4564C267.478 22.1322 267.377 22.9094 267.208 23.7203ZM251.766 35.5805C253.118 35.5805 254.402 35.4115 255.618 35.0398C256.869 34.6681 257.984 34.1613 258.997 33.4517C257.882 32.2691 256.801 31.0527 255.72 29.7687C254.672 28.5184 253.692 27.2344 252.78 25.9166C251.834 24.5988 250.989 23.2811 250.212 21.9633C249.435 20.6455 248.725 19.3277 248.151 18.0437C247.374 18.5843 246.664 19.1249 245.988 19.6993C245.312 20.2738 244.738 20.9158 244.265 21.5916C243.758 22.3012 243.353 23.0445 243.082 23.8555C242.778 24.7002 242.643 25.5787 242.643 26.5586C242.643 27.8426 242.88 29.0253 243.319 30.1403C243.792 31.2554 244.4 32.2015 245.211 33.0125C246.022 33.8234 247.002 34.4654 248.117 34.9047C249.198 35.3439 250.415 35.5805 251.766 35.5805ZM249.908 8.07573C249.908 9.02184 250.009 10.0017 250.212 11.0154C250.415 12.0291 250.719 13.0766 251.124 14.1917C251.901 13.6848 252.679 13.1442 253.388 12.6035C254.064 12.0629 254.672 11.4547 255.213 10.8127C255.72 10.2045 256.125 9.49489 256.429 8.78531C256.733 8.04194 256.869 7.26478 256.869 6.38625C256.869 5.87941 256.801 5.40635 256.7 5.00088C256.564 4.56161 256.395 4.15614 256.125 3.81824C255.889 3.48035 255.551 3.21003 255.179 3.04108C254.807 2.83835 254.334 2.73698 253.827 2.73698C252.51 2.73698 251.53 3.21003 250.888 4.15614C250.212 5.10225 249.908 6.38625 249.908 8.07573ZM317.656 36.9996V36.8983C317.69 36.8307 317.724 36.6955 317.724 36.5266C317.757 36.3576 317.757 36.2225 317.757 36.0873C317.757 35.5805 317.69 35.006 317.555 34.3978C317.42 33.7558 317.149 33.0125 316.744 32.0663L313.736 25.3422C312.824 25.3084 311.608 25.3084 310.053 25.3084H301.302C300.085 25.3084 299.004 25.3084 298.024 25.3422L295.186 31.8636C294.949 32.4718 294.679 33.1476 294.409 33.891C294.105 34.6006 293.97 35.3439 293.97 36.0873C293.97 36.29 294.003 36.459 294.037 36.6279C294.071 36.7631 294.105 36.8983 294.105 36.8983V36.9996H289.07V36.8983C289.374 36.5942 289.746 36.0197 290.185 35.2426C290.624 34.4316 291.131 33.4179 291.638 32.2353L305.83 0.777176H307.789L321.238 31.0189C321.542 31.7285 321.88 32.4042 322.218 33.08C322.556 33.7558 322.893 34.3303 323.164 34.8709C323.468 35.4115 323.738 35.8508 323.975 36.1887C324.211 36.5604 324.346 36.7969 324.448 36.8983V36.9996H317.656ZM301.606 23.1797C302.586 23.1797 303.566 23.1459 304.579 23.1459C305.559 23.1459 306.539 23.1459 307.519 23.1121C308.499 23.1121 309.411 23.1121 310.29 23.1121C311.202 23.0783 312.013 23.0783 312.723 23.0783L305.762 7.33236L298.937 23.1797H301.606ZM344.755 20.3076C344.755 18.145 344.316 16.5231 343.438 15.5094C342.559 14.4958 341.41 13.9889 339.923 13.9889C339.417 13.9889 338.808 14.0903 338.133 14.3268C337.491 14.5295 336.815 14.8337 336.105 15.2053C335.429 15.577 334.72 16.0163 334.044 16.4893C333.334 16.9962 332.692 17.5368 332.084 18.0775L332.05 21.3213V27.3358C332.05 28.7212 332.05 29.9376 332.084 30.9851C332.118 32.0326 332.152 32.9449 332.219 33.722C332.287 34.4654 332.388 35.1074 332.456 35.6143C332.523 36.1211 332.625 36.5604 332.726 36.8983V36.9996H327.016V36.8983C327.117 36.5604 327.218 36.1211 327.286 35.6143C327.387 35.1074 327.455 34.4654 327.523 33.722C327.59 32.9449 327.624 32.0326 327.658 30.9851C327.692 29.9376 327.725 28.7212 327.725 27.3358V21.3213C327.725 19.9359 327.692 18.7195 327.658 17.672C327.624 16.6245 327.59 15.7122 327.523 14.935C327.455 14.1916 327.387 13.5497 327.286 13.0428C327.218 12.536 327.117 12.0967 327.016 11.7588V11.6574H332.726V11.7588C332.591 12.1643 332.49 12.7049 332.422 13.3131C332.355 13.9551 332.253 14.7999 332.186 15.8136C332.861 15.2391 333.605 14.6985 334.382 14.1241C335.159 13.5834 335.97 13.0766 336.815 12.6373C337.659 12.1981 338.504 11.8264 339.383 11.5561C340.261 11.2857 341.106 11.1506 341.951 11.1506C343.235 11.1506 344.35 11.3871 345.228 11.8264C346.141 12.2656 346.884 12.8739 347.425 13.5834C347.999 14.3268 348.438 15.1378 348.675 16.0839C348.945 16.9962 349.047 17.9423 349.047 18.9222V27.3358C349.047 28.7212 349.08 29.9376 349.114 30.9851C349.148 32.0326 349.182 32.9449 349.249 33.722C349.317 34.4654 349.384 35.1074 349.486 35.6143C349.553 36.1211 349.655 36.5604 349.756 36.8983V36.9996H344.046V36.8983C344.147 36.5604 344.215 36.1211 344.316 35.6143C344.417 35.1074 344.485 34.4654 344.553 33.722C344.586 32.9449 344.654 32.0326 344.688 30.9851C344.722 29.9376 344.755 28.7212 344.755 27.3358V20.3076ZM365.435 35.5467C365.941 35.5467 366.414 35.4453 366.921 35.2764C367.394 35.0736 367.867 34.8371 368.34 34.533C368.78 34.1951 369.219 33.8572 369.624 33.4517C370.064 33.0462 370.435 32.607 370.807 32.1677L371.077 32.3029L369.456 36.2901C369.253 36.3914 369.016 36.4928 368.712 36.6279C368.442 36.7631 368.104 36.8983 367.698 37.0334C367.293 37.1686 366.82 37.2699 366.246 37.3713C365.705 37.4389 365.063 37.5065 364.319 37.5065C362.123 37.5065 360.4 36.8983 359.183 35.6818C357.933 34.4992 357.325 32.6408 357.325 30.1066V13.5834L353.169 13.7186V11.5561C353.676 11.5899 354.284 11.6236 354.994 11.6236C355.703 11.6574 356.48 11.6574 357.325 11.6574C357.325 10.4748 357.291 9.4611 357.224 8.54878C357.19 7.63646 357.156 6.85931 357.089 6.18352C357.021 5.54152 356.953 4.96709 356.886 4.49403C356.784 4.05477 356.717 3.64929 356.649 3.34518V3.24381H362.36V3.34518C362.258 3.64929 362.157 4.05477 362.089 4.49403C361.988 4.96709 361.92 5.54152 361.853 6.18352C361.819 6.85931 361.751 7.63647 361.718 8.515C361.684 9.42732 361.65 10.4748 361.65 11.6574C362.664 11.6236 363.677 11.6236 364.691 11.5899C365.671 11.5561 366.583 11.5223 367.428 11.4885C368.239 11.4547 368.915 11.4209 369.489 11.3871C370.064 11.3195 370.435 11.2857 370.604 11.252L370.165 13.7862C369.32 13.7524 368.442 13.7524 367.53 13.7186C366.719 13.6848 365.84 13.651 364.793 13.651C363.779 13.6172 362.731 13.6172 361.65 13.5834V30.6134C361.65 31.6271 361.751 32.4718 361.954 33.1138C362.191 33.722 362.495 34.2289 362.833 34.6006C363.204 34.9723 363.576 35.2088 364.049 35.3439C364.488 35.4791 364.961 35.5467 365.435 35.5467ZM373.848 24.261C373.848 22.4025 374.186 20.6793 374.862 19.0911C375.571 17.503 376.518 16.1177 377.734 14.935C378.95 13.7862 380.37 12.8739 382.025 12.1981C383.681 11.5561 385.438 11.2182 387.33 11.2182C389.222 11.2182 390.979 11.5223 392.601 12.1305C394.257 12.7725 395.676 13.651 396.893 14.7661C398.109 15.9149 399.089 17.3003 399.799 18.9222C400.474 20.5779 400.846 22.4025 400.846 24.4299C400.846 26.1194 400.542 27.7413 399.934 29.3294C399.359 30.8837 398.481 32.2691 397.332 33.4855C396.149 34.7019 394.764 35.648 393.074 36.3576C391.385 37.0672 389.459 37.4389 387.296 37.4389C385.438 37.4389 383.715 37.1348 382.059 36.5266C380.437 35.9184 379.018 35.0398 377.802 33.891C376.585 32.7759 375.605 31.3906 374.896 29.7687C374.186 28.1468 373.848 26.3221 373.848 24.261ZM387.871 35.648C389.053 35.648 390.101 35.4115 391.081 34.9385C392.095 34.4654 392.939 33.8234 393.649 32.9449C394.358 32.0663 394.899 30.9851 395.305 29.7349C395.676 28.4847 395.879 27.0655 395.879 25.4774C395.879 23.7203 395.71 22.0646 395.305 20.5441C394.933 18.9898 394.358 17.672 393.615 16.5569C392.872 15.4419 391.926 14.5971 390.777 13.9551C389.662 13.3131 388.31 13.009 386.79 13.009C385.641 13.009 384.559 13.2455 383.58 13.6848C382.6 14.1579 381.755 14.7999 381.045 15.6784C380.336 16.5231 379.761 17.5706 379.39 18.8208C378.984 20.071 378.781 21.4902 378.781 23.0783C378.781 24.8354 378.984 26.4911 379.356 28.0454C379.761 29.5659 380.336 30.9175 381.079 32.0326C381.856 33.1814 382.802 34.0599 383.917 34.6681C385.033 35.3102 386.35 35.648 387.871 35.648ZM423.384 20.3076C423.384 18.145 422.944 16.5231 422.066 15.5094C421.187 14.4958 420.039 13.9889 418.552 13.9889C418.011 13.9889 417.437 14.0903 416.761 14.3268C416.119 14.5295 415.443 14.8337 414.734 15.2053C414.058 15.577 413.348 16.0163 412.672 16.4893C411.963 16.9962 411.321 17.5368 410.713 18.0775L410.645 21.3213V27.3358C410.645 28.7212 410.679 29.9376 410.713 30.9851C410.746 32.0326 410.78 32.9449 410.848 33.722C410.915 34.4654 410.983 35.1074 411.084 35.6143C411.152 36.1211 411.253 36.5604 411.355 36.8983V36.9996H405.644V36.8983C405.746 36.5604 405.813 36.1211 405.914 35.6143C406.016 35.1074 406.083 34.4654 406.151 33.722C406.185 32.9449 406.252 32.0326 406.286 30.9851C406.32 29.9376 406.354 28.7212 406.354 27.3358V21.3213C406.354 19.9359 406.32 18.7195 406.286 17.672C406.252 16.6245 406.185 15.7122 406.151 14.935C406.083 14.1916 406.016 13.5497 405.914 13.0428C405.813 12.536 405.746 12.0967 405.644 11.7588V11.6574H411.355V11.7588C411.219 12.1643 411.118 12.7049 411.05 13.3131C410.983 13.9551 410.882 14.7999 410.814 15.8136C411.49 15.2391 412.199 14.6985 413.01 14.1241C413.787 13.5834 414.598 13.0766 415.443 12.6373C416.288 12.1981 417.133 11.8264 418.011 11.5561C418.89 11.2857 419.734 11.1506 420.579 11.1506C421.863 11.1506 422.978 11.3871 423.857 11.8264C424.769 12.2656 425.512 12.8739 426.053 13.5834C426.627 14.3268 427.033 15.1378 427.303 16.0839C427.574 16.9962 427.675 17.9423 427.675 18.9222V27.3358C427.675 28.7212 427.709 29.9376 427.743 30.9851C427.776 32.0326 427.81 32.9449 427.878 33.722C427.945 34.4654 428.013 35.1074 428.114 35.6143C428.182 36.1211 428.283 36.5604 428.385 36.8983V36.9996H422.674V36.8983C422.776 36.5604 422.843 36.1211 422.944 35.6143C423.046 35.1074 423.113 34.4654 423.181 33.722C423.215 32.9449 423.282 32.0326 423.316 30.9851C423.35 29.9376 423.384 28.7212 423.384 27.3358V20.3076ZM435.244 21.3213C435.244 19.9359 435.244 18.7195 435.21 17.672C435.142 16.6245 435.109 15.7122 435.041 14.935C435.007 14.1916 434.906 13.5497 434.838 13.0428C434.737 12.536 434.636 12.0967 434.534 11.7588V11.6574H440.245V11.7588C440.143 12.0967 440.076 12.536 439.974 13.0428C439.907 13.5497 439.839 14.1916 439.772 14.935C439.704 15.7122 439.637 16.6245 439.603 17.672C439.569 18.7195 439.569 19.9359 439.569 21.3213V27.3358C439.569 28.7212 439.569 29.9376 439.603 30.9851C439.637 32.0326 439.704 32.9449 439.772 33.722C439.839 34.4654 439.907 35.1074 439.974 35.6143C440.076 36.1211 440.143 36.5604 440.245 36.8983V36.9996H434.534V36.8983C434.636 36.5604 434.737 36.1211 434.838 35.6143C434.906 35.1074 435.007 34.4654 435.041 33.722C435.109 32.9449 435.142 32.0326 435.21 30.9851C435.244 29.9376 435.244 28.7212 435.244 27.3358V21.3213ZM434.737 4.15614C434.737 3.78446 434.805 3.44656 434.94 3.14246C435.075 2.80456 435.278 2.53424 435.514 2.29771C435.751 2.06119 436.021 1.85845 436.325 1.72329C436.663 1.58813 437.001 1.52055 437.373 1.52055C437.778 1.52055 438.116 1.58813 438.454 1.72329C438.758 1.85845 439.028 2.06119 439.265 2.29771C439.535 2.53424 439.704 2.80456 439.839 3.14246C439.974 3.44656 440.076 3.78446 440.076 4.15614C440.076 4.89951 439.805 5.54151 439.299 6.04836C438.792 6.58899 438.15 6.82552 437.373 6.82552C437.001 6.82552 436.663 6.75794 436.325 6.62278C436.021 6.48762 435.751 6.28488 435.514 6.04836C435.278 5.81183 435.075 5.54151 434.94 5.20361C434.805 4.89951 434.737 4.52783 434.737 4.15614ZM445.246 24.261C445.246 22.4025 445.583 20.6793 446.259 19.0911C446.969 17.503 447.915 16.1177 449.131 14.935C450.348 13.7862 451.767 12.8739 453.423 12.1981C455.078 11.5561 456.835 11.2182 458.761 11.2182C460.62 11.2182 462.377 11.5223 463.999 12.1305C465.655 12.7725 467.074 13.651 468.29 14.7661C469.506 15.9149 470.486 17.3003 471.196 18.9222C471.872 20.5779 472.243 22.4025 472.243 24.4299C472.243 26.1194 471.939 27.7413 471.331 29.3294C470.757 30.8837 469.878 32.2691 468.729 33.4855C467.581 34.7019 466.161 35.648 464.472 36.3576C462.816 37.0672 460.89 37.4389 458.694 37.4389C456.835 37.4389 455.112 37.1348 453.49 36.5266C451.835 35.9184 450.415 35.0398 449.199 33.891C447.983 32.7759 447.003 31.3906 446.293 29.7687C445.583 28.1468 445.246 26.3221 445.246 24.261ZM459.268 35.648C460.451 35.648 461.498 35.4115 462.478 34.9385C463.492 34.4654 464.337 33.8234 465.046 32.9449C465.756 32.0663 466.296 30.9851 466.702 29.7349C467.074 28.4847 467.276 27.0655 467.276 25.4774C467.276 23.7203 467.107 22.0646 466.702 20.5441C466.33 18.9898 465.756 17.672 465.012 16.5569C464.269 15.4419 463.323 14.5971 462.174 13.9551C461.059 13.3131 459.708 13.009 458.187 13.009C457.038 13.009 455.957 13.2455 454.977 13.6848C453.997 14.1579 453.152 14.7999 452.443 15.6784C451.733 16.5231 451.159 17.5706 450.787 18.8208C450.382 20.071 450.179 21.4902 450.179 23.0783C450.179 24.8354 450.382 26.4911 450.753 28.0454C451.159 29.5659 451.733 30.9175 452.477 32.0326C453.254 33.1814 454.2 34.0599 455.315 34.6681C456.464 35.3102 457.748 35.648 459.268 35.648ZM91.9077 91.5698C92.0091 91.2319 92.0767 90.7927 92.178 90.2858C92.2456 89.779 92.347 89.137 92.3808 88.3936C92.4484 87.6165 92.5159 86.7379 92.5497 85.6904C92.5835 84.643 92.5835 83.3928 92.5835 82.0074V65.8897C92.5835 64.5044 92.5835 63.2542 92.5497 62.2067C92.5159 61.1592 92.4484 60.2469 92.3808 59.5035C92.347 58.7263 92.2456 58.0843 92.178 57.5775C92.0767 57.0707 92.0091 56.6314 91.9077 56.2935V56.1921H97.8209V56.2935C97.7195 56.6314 97.6182 57.0707 97.5168 57.5775C97.4492 58.0843 97.3816 58.7263 97.3141 59.5035C97.2465 60.2469 97.2127 61.1592 97.1451 62.2067C97.1113 63.2542 97.1113 64.5044 97.1113 65.8897V82.0074C97.1113 83.3928 97.1113 84.643 97.1451 85.6904C97.2127 86.7379 97.2465 87.6165 97.3141 88.3936C97.3816 89.137 97.4492 89.779 97.5168 90.2858C97.6182 90.7927 97.7195 91.2319 97.8209 91.5698V91.6712H91.9077V91.5698ZM103.329 91.5698C103.531 91.3333 103.734 90.9278 103.971 90.421C104.173 89.8804 104.376 89.2384 104.511 88.4274C104.68 87.2786 104.883 85.9946 105.119 84.5416C105.322 83.0886 105.559 81.5681 105.795 80.0138C106.032 78.4257 106.268 76.8038 106.505 75.1481C106.741 73.4924 106.978 71.8367 107.214 70.2486C107.417 68.6267 107.654 67.0724 107.856 65.5856C108.059 64.0989 108.228 62.7135 108.397 61.4971C108.566 60.2469 108.701 59.1656 108.803 58.2533C108.938 57.341 109.005 56.6652 109.039 56.1921H112.181L127.758 85.285L143.2 56.1921H145.566L149.62 85.5891C149.722 86.5014 149.857 87.3123 149.992 87.9543C150.127 88.6301 150.262 89.2046 150.398 89.6776C150.499 90.1507 150.634 90.5224 150.769 90.8265C150.904 91.1306 151.006 91.4009 151.141 91.5698V91.6712H144.89V91.5698C144.957 91.4009 145.059 91.0968 145.126 90.6913C145.194 90.2858 145.228 89.779 145.228 89.2046C145.228 89.0018 145.228 88.7653 145.194 88.5626C145.194 88.326 145.16 88.0895 145.126 87.8192L141.984 64.0989L127.387 91.5698L125.697 91.4009L110.999 63.8624C110.391 67.782 109.918 71.3974 109.478 74.7088C109.276 76.128 109.107 77.5472 108.938 78.9325C108.735 80.3517 108.6 81.6695 108.431 82.8859C108.296 84.1023 108.194 85.1836 108.127 86.1297C108.025 87.042 107.992 87.7516 107.992 88.1909C107.992 88.7653 107.992 89.2384 108.025 89.6776C108.059 90.1169 108.093 90.4548 108.127 90.7589C108.194 91.0968 108.228 91.4009 108.296 91.6712H103.329V91.5698ZM154.925 91.5698C155.094 91.3333 155.297 90.9278 155.534 90.421C155.77 89.8804 155.939 89.2384 156.074 88.4274C156.243 87.2786 156.446 85.9946 156.682 84.5416C156.919 83.0886 157.122 81.5681 157.358 80.0138C157.628 78.4257 157.865 76.8038 158.102 75.1481C158.338 73.4924 158.575 71.8367 158.777 70.2486C159.014 68.6267 159.217 67.0724 159.419 65.5856C159.622 64.0989 159.825 62.7135 159.994 61.4971C160.163 60.2469 160.298 59.1656 160.399 58.2533C160.501 57.341 160.568 56.6652 160.636 56.1921H163.778L179.321 85.285L194.797 56.1921H197.129L201.183 85.5891C201.318 86.5014 201.42 87.3123 201.555 87.9543C201.69 88.6301 201.825 89.2046 201.96 89.6776C202.096 90.1507 202.231 90.5224 202.332 90.8265C202.467 91.1306 202.569 91.4009 202.704 91.5698V91.6712H196.453V91.5698C196.554 91.4009 196.622 91.0968 196.689 90.6913C196.757 90.2858 196.824 89.779 196.824 89.2046C196.824 89.0018 196.791 88.7653 196.791 88.5626C196.757 88.326 196.757 88.0895 196.723 87.8192L193.581 64.0989L178.95 91.5698L177.26 91.4009L162.562 63.8624C161.987 67.782 161.48 71.3974 161.041 74.7088C160.872 76.128 160.67 77.5472 160.501 78.9325C160.332 80.3517 160.163 81.6695 160.028 82.8859C159.892 84.1023 159.757 85.1836 159.69 86.1297C159.588 87.042 159.554 87.7516 159.554 88.1909C159.554 88.7653 159.588 89.2384 159.622 89.6776C159.656 90.1169 159.69 90.4548 159.723 90.7589C159.757 91.0968 159.825 91.4009 159.859 91.6712H154.925V91.5698ZM224.431 55.5839C227.167 55.5839 229.735 56.057 232.067 56.9355C234.398 57.8478 236.426 59.098 238.115 60.7199C239.805 62.3418 241.156 64.3016 242.102 66.5993C243.049 68.8632 243.522 71.3637 243.522 74.1344C243.522 75.6887 243.353 77.243 242.981 78.7636C242.643 80.2841 242.102 81.7033 241.393 83.0549C240.683 84.4064 239.839 85.6567 238.791 86.8055C237.777 87.9543 236.629 88.968 235.311 89.779C233.993 90.6237 232.54 91.2657 230.952 91.7388C229.364 92.2118 227.674 92.4484 225.85 92.4484C223.079 92.4484 220.545 92.0091 218.213 91.1306C215.882 90.252 213.854 89.0018 212.165 87.3799C210.442 85.758 209.124 83.832 208.178 81.5343C207.198 79.2704 206.725 76.77 206.725 73.9992C206.725 72.4111 206.928 70.8906 207.265 69.3701C207.637 67.8495 208.178 66.3966 208.887 65.0112C209.563 63.6596 210.442 62.4094 211.455 61.2606C212.469 60.1117 213.618 59.098 214.936 58.2871C216.253 57.4423 217.706 56.7665 219.294 56.2935C220.883 55.8204 222.606 55.5839 224.431 55.5839ZM225.85 90.2183C227.674 90.2183 229.33 89.8804 230.851 89.2384C232.371 88.5626 233.689 87.6165 234.77 86.3662C235.885 85.116 236.73 83.5617 237.338 81.7709C237.946 79.9462 238.25 77.9188 238.25 75.6211C238.25 73.0869 237.98 70.7217 237.372 68.5591C236.798 66.3966 235.919 64.5044 234.77 62.9163C233.621 61.3281 232.168 60.0779 230.445 59.1656C228.722 58.2871 226.728 57.814 224.431 57.814C222.606 57.814 220.916 58.1519 219.396 58.7939C217.875 59.4697 216.591 60.4158 215.476 61.6322C214.395 62.8825 213.516 64.403 212.908 66.1938C212.3 67.9847 211.996 70.0459 211.996 72.3436C211.996 74.844 212.3 77.2093 212.874 79.4056C213.449 81.5681 214.327 83.4603 215.476 85.0822C216.625 86.6703 218.078 87.9206 219.801 88.8329C221.525 89.779 223.552 90.2183 225.85 90.2183ZM249.807 65.8897C249.807 64.5044 249.773 63.2542 249.739 62.2067C249.705 61.1592 249.671 60.2469 249.604 59.5035C249.536 58.7263 249.469 58.0843 249.367 57.5775C249.266 57.0707 249.165 56.6314 249.063 56.2935V56.1921C249.401 56.1921 249.739 56.2259 250.111 56.2259C250.415 56.2259 250.786 56.2259 251.158 56.2259H252.375C252.949 56.2259 253.76 56.1921 254.774 56.057C255.787 55.9556 257.105 55.888 258.693 55.888C260.18 55.888 261.565 56.0908 262.816 56.4624C264.066 56.8679 265.147 57.4085 266.059 58.1519C266.972 58.8615 267.715 59.7738 268.222 60.8213C268.729 61.9026 268.999 63.119 268.999 64.4706C268.999 65.5856 268.83 66.5993 268.526 67.5116C268.222 68.424 267.783 69.2011 267.208 69.8769C266.634 70.5189 265.958 71.0933 265.147 71.5326C264.336 72.0057 263.458 72.3773 262.511 72.6139C263.931 72.8504 265.181 73.1883 266.363 73.6951C267.512 74.202 268.492 74.844 269.337 75.5874C270.182 76.3645 270.824 77.243 271.263 78.2567C271.702 79.2704 271.939 80.3855 271.939 81.6357C271.939 85.116 270.79 87.7178 268.492 89.4749C266.228 91.1981 262.782 92.0767 258.22 92.0767C257.713 92.0767 257.139 92.0429 256.463 92.0091C255.821 91.9753 253.118 91.7726 252.442 91.7388C251.8 91.705 251.192 91.6712 250.719 91.6712H249.063V91.5698C249.165 91.2319 249.266 90.7927 249.367 90.2858C249.469 89.779 249.536 89.137 249.604 88.3936C249.671 87.6165 249.705 86.7379 249.739 85.6904C249.773 84.643 249.807 83.3928 249.807 82.0074V65.8897ZM258.862 74.1344C257.747 74.1344 256.801 74.1682 256.058 74.2696C255.314 74.3371 254.706 74.4385 254.301 74.5061V82.0074C254.301 83.9334 254.334 85.5215 254.402 86.7717C254.469 88.0219 254.571 89.0694 254.672 89.8466C255.314 89.9479 255.922 90.0155 256.564 90.0831C257.173 90.1507 257.679 90.1845 258.051 90.1845C261.16 90.1845 263.39 89.4749 264.843 88.0895C266.262 86.7379 266.972 84.6092 266.972 81.7709C266.972 80.622 266.803 79.6083 266.465 78.6622C266.127 77.7499 265.62 76.9389 264.944 76.2631C264.302 75.5874 263.458 75.0467 262.444 74.675C261.43 74.3371 260.247 74.1344 258.862 74.1344ZM254.301 72.276C254.774 72.3436 255.179 72.3436 255.551 72.3773C255.889 72.3773 256.294 72.3773 256.7 72.3773C257.815 72.3773 258.862 72.2084 259.774 71.9043C260.687 71.5664 261.498 71.0933 262.14 70.4513C262.782 69.8093 263.289 68.9984 263.66 68.0185C264.032 67.0724 264.201 65.9573 264.201 64.6395C264.201 63.592 264.066 62.6121 263.795 61.7336C263.525 60.8551 263.153 60.1117 262.613 59.5035C262.106 58.8615 261.464 58.3884 260.721 58.0843C259.943 57.7464 259.099 57.5775 258.119 57.5775C257.477 57.5775 256.936 57.6113 256.463 57.6451C255.99 57.7127 255.585 57.7464 255.28 57.814C254.875 57.8816 254.571 57.983 254.301 58.0843V72.276ZM277.717 91.5698C277.818 91.2319 277.886 90.7927 277.987 90.2858C278.055 89.779 278.156 89.137 278.224 88.3936C278.257 87.6165 278.325 86.7379 278.359 85.6904C278.393 84.643 278.393 83.3928 278.393 82.0074V65.8897C278.393 64.5044 278.393 63.2542 278.359 62.2067C278.325 61.1592 278.257 60.2469 278.224 59.5035C278.156 58.7263 278.055 58.0843 277.987 57.5775C277.886 57.0707 277.818 56.6314 277.717 56.2935V56.1921H283.63V56.2935C283.529 56.6314 283.427 57.0707 283.326 57.5775C283.258 58.0843 283.191 58.7263 283.123 59.5035C283.055 60.2469 283.022 61.1592 282.954 62.2067C282.92 63.2542 282.92 64.5044 282.92 65.8897V82.0074C282.92 83.3928 282.92 84.643 282.954 85.6904C283.022 86.7379 283.055 87.6165 283.123 88.3936C283.191 89.137 283.258 89.779 283.326 90.2858C283.427 90.7927 283.529 91.2319 283.63 91.5698V91.6712H277.717V91.5698ZM296.132 89.5087C298.058 89.5087 299.849 89.4073 301.505 89.2721C303.127 89.1032 304.546 88.9005 305.762 88.6977C307.181 88.4612 308.499 88.1909 309.648 87.8868L308.938 91.8739C308.736 91.8739 308.465 91.8402 308.06 91.8402C307.654 91.8064 307.215 91.8064 306.742 91.7726C306.235 91.7726 305.728 91.7388 305.188 91.7388C304.647 91.7388 304.14 91.7388 303.667 91.705C303.194 91.705 302.755 91.705 302.383 91.705C302.011 91.6712 301.775 91.6712 301.606 91.6712H290.895V91.5698C290.996 91.2319 291.097 90.7927 291.199 90.2858C291.266 89.779 291.368 89.137 291.435 88.3936C291.503 87.6165 291.537 86.7379 291.57 85.6904C291.604 84.643 291.604 83.3928 291.604 82.0074V65.8897C291.604 64.5044 291.604 63.2542 291.57 62.2067C291.537 61.1592 291.503 60.2469 291.435 59.5035C291.368 58.7263 291.266 58.0843 291.199 57.5775C291.097 57.0707 290.996 56.6314 290.895 56.2935V56.1921H296.842V56.2935C296.74 56.6314 296.639 57.0707 296.571 57.5775C296.47 58.0843 296.402 58.7263 296.335 59.5035C296.267 60.2469 296.233 61.1592 296.2 62.2067C296.132 63.2542 296.132 64.5044 296.132 65.8897V89.5087ZM314.412 91.5698C314.514 91.2319 314.615 90.7927 314.683 90.2858C314.784 89.779 314.852 89.137 314.919 88.3936C314.987 87.6165 315.02 86.7379 315.054 85.6904C315.088 84.643 315.122 83.3928 315.122 82.0074V65.8897C315.122 64.5044 315.088 63.2542 315.054 62.2067C315.02 61.1592 314.987 60.2469 314.919 59.5035C314.852 58.7263 314.784 58.0843 314.683 57.5775C314.615 57.0707 314.514 56.6314 314.412 56.2935V56.1921H320.325V56.2935C320.224 56.6314 320.123 57.0707 320.055 57.5775C319.954 58.0843 319.886 58.7263 319.819 59.5035C319.751 60.2469 319.717 61.1592 319.683 62.2067C319.616 63.2542 319.616 64.5044 319.616 65.8897V82.0074C319.616 83.3928 319.616 84.643 319.683 85.6904C319.717 86.7379 319.751 87.6165 319.819 88.3936C319.886 89.137 319.954 89.779 320.055 90.2858C320.123 90.7927 320.224 91.2319 320.325 91.5698V91.6712H314.412V91.5698ZM327.59 56.1921C329.651 56.1921 331.713 56.1921 333.74 56.1583C335.801 56.1583 337.659 56.1245 339.349 56.0908C341.072 56.0908 342.525 56.057 343.708 55.9894C344.924 55.9556 345.735 55.888 346.174 55.7866L344.958 59.098C344.417 58.9291 343.775 58.7939 343.032 58.6926C342.424 58.5912 341.647 58.4898 340.768 58.4222C339.856 58.3209 338.808 58.2871 337.659 58.2871C337.254 58.2871 336.781 58.2871 336.24 58.3209C335.666 58.3209 335.159 58.3547 334.618 58.3884C334.044 58.4222 333.436 58.456 332.828 58.4898V72.0057C334.517 72.0057 336.071 71.9381 337.423 71.8705C338.808 71.7691 339.957 71.7016 340.903 71.6002C342.052 71.4988 343.032 71.3974 343.877 71.2623L343.133 74.844C341.985 74.7088 340.836 74.5737 339.619 74.4385C338.606 74.3033 337.491 74.202 336.308 74.1344C335.091 74.033 333.943 73.9992 332.828 73.9992V89.5087C334.787 89.5087 336.578 89.4073 338.2 89.2721C339.822 89.1032 341.241 88.9005 342.491 88.6977C343.911 88.4612 345.195 88.1909 346.377 87.8868L345.634 91.8739C345.431 91.8739 345.161 91.8402 344.755 91.8402C344.35 91.8064 343.911 91.8064 343.438 91.7726C342.931 91.7726 342.424 91.7388 341.883 91.7388C341.376 91.7388 340.869 91.7388 340.363 91.705C339.89 91.705 339.484 91.705 339.112 91.705C338.741 91.6712 338.47 91.6712 338.301 91.6712H327.59V91.5698C327.692 91.2319 327.793 90.7927 327.894 90.2858C327.996 89.779 328.063 89.137 328.131 88.3936C328.198 87.6165 328.232 86.7379 328.266 85.6904C328.3 84.643 328.334 83.3928 328.334 82.0074V65.8897C328.334 64.5044 328.3 63.2542 328.266 62.2067C328.232 61.1592 328.198 60.2469 328.131 59.5035C328.063 58.7263 327.996 58.0843 327.894 57.5775C327.793 57.0707 327.692 56.6314 327.59 56.2935V56.1921ZM353.811 56.1921L379.288 83.3252V65.8897C379.288 64.5044 379.288 63.2542 379.254 62.2067C379.221 61.1592 379.187 60.2469 379.119 59.5035C379.052 58.7263 378.95 58.0843 378.883 57.5775C378.781 57.0707 378.68 56.6314 378.579 56.2935V56.1921H383.005V56.2935C382.904 56.6314 382.802 57.0707 382.735 57.5775C382.633 58.0843 382.566 58.7263 382.498 59.5035C382.431 60.2469 382.397 61.1592 382.363 62.2067C382.329 63.2542 382.296 64.5044 382.296 65.8897V92.178H381.417L355.94 65.0788V82.0074C355.94 83.3928 355.973 84.643 356.007 85.6904C356.007 86.7379 356.075 87.6165 356.142 88.3936C356.21 89.137 356.278 89.779 356.345 90.2858C356.447 90.7927 356.548 91.2319 356.649 91.5698V91.6712H352.223V91.5698C352.324 91.2319 352.426 90.7927 352.527 90.2858C352.594 89.779 352.696 89.137 352.763 88.3936C352.831 87.6165 352.865 86.7379 352.899 85.6904C352.932 84.643 352.932 83.3928 352.932 82.0074V65.8897C352.932 64.5044 352.932 63.2542 352.899 62.2067C352.865 61.1592 352.831 60.2469 352.763 59.5035C352.696 58.7263 352.594 58.0843 352.527 57.5775C352.426 57.0707 352.324 56.6314 352.223 56.2935V56.1921H353.811Z" fill="#525252"/>
</svg>
