<svg width="586" height="403" viewBox="0 0 586 403" fill="none" xmlns="http://www.w3.org/2000/svg">
<g clip-path="url(#clip0_4_23)">
<path d="M436.681 149.418C436.786 147.172 436.839 144.912 436.839 142.64C436.839 63.862 372.888 0 294 0C215.112 0 151.161 63.862 151.161 142.64C151.161 144.912 151.214 147.172 151.319 149.418L203.266 96.8875L262.557 114.157L294 78.0482L325.443 114.157L384.734 96.8875L436.681 149.418Z" fill="#FBE3C4"/>
<path d="M267.948 129.183L203.266 111.241L242.793 156.994L267.948 129.183Z" fill="#8F8F8F"/>
<path d="M132.295 193.775L22.6951 219.791H132.295L203.266 138.154V111.241L132.295 193.775Z" fill="#8F8F8F"/>
<path d="M203.266 138.154V111.241L242.793 156.994L231.115 170.45L203.266 138.154Z" fill="#CCCCCC"/>
<path d="M20 279V272.72H184.4L294 144.434V152.508L186.197 279H20Z" fill="#8F8F8F"/>
<path d="M182.603 226.071L294 97.7847V138.154L182.603 267.338H22.6951L182.603 226.071Z" fill="#BF0000"/>
<path d="M320.052 129.183L384.734 111.241L345.207 156.994L320.052 129.183Z" fill="#8F8F8F"/>
<path d="M455.705 193.775L565.305 219.791H455.705L384.734 138.154V111.241L455.705 193.775Z" fill="#8F8F8F"/>
<path d="M384.734 138.154V111.241L345.207 156.994L356.885 170.45L384.734 138.154Z" fill="#CCCCCC"/>
<path d="M568 279V272.72H403.6L294 144.434V152.508L401.803 279H568Z" fill="#8F8F8F"/>
<path d="M405.397 226.071L294 97.7847V138.154L405.397 267.338H565.305L405.397 226.071Z" fill="#BF0000"/>
<path d="M291.305 222.482H267.049V246.704H291.305V222.482Z" fill="#8F8F8F"/>
<path d="M320.951 222.482H296.695V246.704H320.951V222.482Z" fill="#8F8F8F"/>
<path d="M291.305 252.087H267.049V276.309H291.305V252.087Z" fill="#8F8F8F"/>
<path d="M320.951 252.087H296.695V276.309H320.951V252.087Z" fill="#8F8F8F"/>
</g>
<path d="M35.4719 333.913V333.787C35.5139 333.703 35.5558 333.535 35.5558 333.326C35.5977 333.116 35.5977 332.948 35.5977 332.781C35.5977 332.152 35.5139 331.439 35.3462 330.684C35.1784 329.888 34.843 328.965 34.3399 327.791L30.6501 319.447C29.4761 319.405 27.9667 319.405 26.0379 319.405H15.2202C13.7108 319.405 12.3271 319.405 11.1112 319.447L7.58915 327.54C7.29565 328.294 6.96022 329.133 6.62479 330.055C6.28935 330.936 6.07971 331.858 6.07971 332.781C6.07971 333.032 6.12164 333.242 6.16357 333.452C6.20549 333.619 6.28935 333.787 6.28935 333.787V333.913H0V333.787C0.377361 333.41 0.83858 332.697 1.38366 331.732C1.92873 330.726 2.55767 329.468 3.22853 328.001L20.7968 288.965H23.2706L39.9584 326.491C40.3357 327.372 40.7131 328.21 41.1324 329.049C41.5517 329.888 41.9709 330.6 42.3483 331.271C42.6837 331.942 43.0192 332.487 43.3127 332.906C43.6062 333.368 43.8158 333.661 43.8997 333.787V333.913H35.4719ZM15.5976 316.764C16.7716 316.764 17.9875 316.722 19.2454 316.722C20.5033 316.722 21.7192 316.722 22.8932 316.68C24.1092 316.68 25.2413 316.68 26.3734 316.68C27.4635 316.638 28.4698 316.638 29.3922 316.638L20.7549 297.099L12.2852 316.764H15.5976ZM69.099 313.2C69.099 310.516 68.5539 308.504 67.4638 307.246C66.4156 305.988 64.9481 305.359 63.1032 305.359C62.4742 305.359 61.7195 305.485 60.9229 305.778C60.0843 306.03 59.2457 306.407 58.4071 306.869C57.5266 307.33 56.688 307.875 55.8075 308.462C54.9689 309.091 54.1304 309.762 53.3756 310.432L53.3337 314.458V321.921C53.3337 323.64 53.3337 325.15 53.3756 326.449C53.4176 327.749 53.5014 328.881 53.5853 329.846C53.6691 330.768 53.753 331.565 53.8369 332.194C53.9627 332.823 54.0465 333.368 54.1723 333.787V333.913H47.0863V333.787C47.2121 333.368 47.3379 332.823 47.4637 332.194C47.5475 331.565 47.6314 330.768 47.7152 329.846C47.7991 328.881 47.841 327.749 47.9249 326.449C47.9668 325.15 47.9668 323.64 47.9668 321.921V314.458C47.9668 312.739 47.9668 311.229 47.9249 309.929C47.841 308.63 47.7991 307.497 47.7152 306.533C47.6314 305.611 47.5475 304.814 47.4637 304.185C47.3379 303.556 47.2121 303.011 47.0863 302.592V302.466H54.1723V302.592C54.0046 303.095 53.8788 303.766 53.7949 304.521C53.7111 305.317 53.6272 306.365 53.5014 307.623C54.34 306.91 55.2624 306.24 56.2268 305.527C57.1912 304.856 58.1975 304.227 59.2457 303.682C60.2939 303.137 61.3422 302.676 62.4323 302.34C63.5225 302.005 64.6126 301.837 65.6608 301.837C67.2541 301.837 68.5959 302.131 69.728 302.676C70.8181 303.221 71.7406 303.975 72.4534 304.856C73.1661 305.778 73.6693 306.785 73.9628 307.959C74.2982 309.091 74.4659 310.265 74.4659 311.481V321.921C74.4659 323.64 74.4659 325.15 74.5079 326.449C74.5498 327.749 74.6337 328.881 74.7175 329.846C74.8014 330.768 74.8852 331.565 74.9691 332.194C75.0949 332.823 75.1787 333.368 75.3045 333.787V333.913H68.2185V333.787C68.3443 333.368 68.4701 332.823 68.5539 332.194C68.6797 331.565 68.7636 330.768 68.8474 329.846C68.9313 328.881 68.9732 327.749 69.0152 326.449C69.099 325.15 69.099 323.64 69.099 321.921V313.2ZM94.8015 332.11C95.3885 332.11 96.0175 331.984 96.6045 331.774C97.2334 331.523 97.8204 331.229 98.3655 330.852C98.9106 330.433 99.4556 330.013 100.001 329.51C100.504 329.007 101.007 328.462 101.468 327.917L101.762 328.085L99.7492 333.032C99.4976 333.158 99.2041 333.284 98.8686 333.452C98.4913 333.619 98.072 333.787 97.5688 333.955C97.0657 334.122 96.4787 334.248 95.8078 334.374C95.1369 334.458 94.3403 334.542 93.4179 334.542C90.6505 334.542 88.5122 333.787 87.0027 332.278C85.4933 330.81 84.6966 328.504 84.6966 325.359V304.856L79.5393 305.024V302.34C80.1683 302.382 80.9649 302.424 81.8454 302.424C82.726 302.466 83.6484 302.466 84.6966 302.466C84.6966 300.998 84.6547 299.741 84.6128 298.609C84.5708 297.476 84.487 296.512 84.4031 295.673C84.3612 294.877 84.2773 294.164 84.1515 293.577C84.0677 293.032 83.9419 292.529 83.858 292.151V292.026H90.9441V292.151C90.8183 292.529 90.6925 293.032 90.6086 293.577C90.5248 294.164 90.399 294.877 90.3571 295.673C90.2732 296.512 90.2313 297.476 90.1474 298.567C90.1055 299.699 90.0635 300.998 90.0635 302.466C91.3633 302.424 92.6212 302.424 93.8372 302.382C95.095 302.34 96.2271 302.298 97.2334 302.256C98.2397 302.214 99.1202 302.172 99.7911 302.131C100.504 302.047 100.965 302.005 101.217 301.963L100.63 305.108C99.6234 305.066 98.4913 305.066 97.3592 305.024C96.3948 304.982 95.2627 304.94 94.0049 304.94C92.7051 304.898 91.4053 304.898 90.0635 304.856V325.988C90.0635 327.246 90.1893 328.294 90.4828 329.091C90.7344 329.846 91.1118 330.475 91.5311 330.936C91.9923 331.397 92.4954 331.691 93.0405 331.858C93.6275 332.026 94.1726 332.11 94.8015 332.11ZM105.2 318.106C105.2 315.799 105.619 313.661 106.5 311.69C107.338 309.72 108.512 308.001 110.022 306.533C111.531 305.108 113.334 303.975 115.347 303.137C117.401 302.34 119.624 301.921 121.972 301.921C124.278 301.921 126.458 302.298 128.471 303.053C130.525 303.85 132.286 304.94 133.837 306.323C135.347 307.749 136.521 309.468 137.401 311.481C138.282 313.535 138.701 315.799 138.701 318.315C138.701 320.412 138.324 322.424 137.611 324.395C136.856 326.324 135.766 328.043 134.341 329.552C132.915 331.062 131.154 332.236 129.058 333.116C127.003 333.997 124.613 334.458 121.888 334.458C119.624 334.458 117.443 334.08 115.431 333.326C113.376 332.571 111.615 331.481 110.106 330.055C108.596 328.672 107.38 326.953 106.5 324.94C105.619 322.927 105.2 320.663 105.2 318.106ZM122.6 332.236C124.068 332.236 125.41 331.942 126.626 331.355C127.842 330.768 128.89 329.971 129.77 328.881C130.651 327.791 131.322 326.449 131.825 324.898C132.328 323.347 132.538 321.586 132.538 319.615C132.538 317.435 132.328 315.38 131.867 313.493C131.364 311.565 130.693 309.929 129.728 308.546C128.806 307.162 127.632 306.114 126.248 305.317C124.823 304.521 123.187 304.143 121.301 304.143C119.833 304.143 118.491 304.437 117.275 304.982C116.101 305.569 115.053 306.365 114.131 307.456C113.25 308.504 112.579 309.804 112.076 311.355C111.573 312.906 111.322 314.667 111.322 316.638C111.322 318.818 111.573 320.873 112.076 322.802C112.537 324.688 113.25 326.366 114.173 327.749C115.137 329.175 116.311 330.265 117.695 331.02C119.12 331.816 120.756 332.236 122.6 332.236ZM166.668 313.2C166.668 310.516 166.123 308.504 165.033 307.246C163.984 305.988 162.517 305.359 160.672 305.359C160.043 305.359 159.288 305.485 158.492 305.778C157.653 306.03 156.815 306.407 155.976 306.869C155.095 307.33 154.257 307.875 153.376 308.462C152.538 309.091 151.699 309.762 150.944 310.432L150.903 314.458V321.921C150.903 323.64 150.903 325.15 150.944 326.449C150.986 327.749 151.07 328.881 151.154 329.846C151.238 330.768 151.322 331.565 151.406 332.194C151.531 332.823 151.615 333.368 151.741 333.787V333.913H144.655V333.787C144.781 333.368 144.907 332.823 144.991 332.194C145.116 331.565 145.2 330.768 145.284 329.846C145.368 328.881 145.41 327.749 145.452 326.449C145.536 325.15 145.536 323.64 145.536 321.921V314.458C145.536 312.739 145.536 311.229 145.452 309.929C145.41 308.63 145.368 307.497 145.284 306.533C145.2 305.611 145.116 304.814 144.991 304.185C144.907 303.556 144.781 303.011 144.655 302.592V302.466H151.741V302.592C151.573 303.095 151.448 303.766 151.364 304.521C151.28 305.317 151.196 306.365 151.07 307.623C151.909 306.91 152.831 306.24 153.796 305.527C154.76 304.856 155.766 304.227 156.815 303.682C157.863 303.137 158.911 302.676 160.001 302.34C161.091 302.005 162.181 301.837 163.188 301.837C164.823 301.837 166.165 302.131 167.255 302.676C168.387 303.221 169.309 303.975 170.022 304.856C170.735 305.778 171.238 306.785 171.532 307.959C171.867 309.091 172.035 310.265 172.035 311.481V321.921C172.035 323.64 172.035 325.15 172.077 326.449C172.119 327.749 172.202 328.881 172.286 329.846C172.328 330.768 172.454 331.565 172.538 332.194C172.664 332.823 172.748 333.368 172.873 333.787V333.913H165.787V333.787C165.913 333.368 166.039 332.823 166.123 332.194C166.249 331.565 166.332 330.768 166.416 329.846C166.5 328.881 166.542 327.749 166.584 326.449C166.668 325.15 166.668 323.64 166.668 321.921V313.2ZM194.97 334.458C192.706 334.458 190.609 334.122 188.597 333.368C186.626 332.655 184.907 331.607 183.398 330.223C181.93 328.839 180.798 327.162 179.917 325.108C179.079 323.095 178.66 320.747 178.66 318.106C178.66 315.799 179.037 313.661 179.834 311.69C180.588 309.72 181.678 308.001 183.062 306.533C184.404 305.108 186.039 303.975 187.842 303.137C189.687 302.34 191.658 301.921 193.796 301.921C195.892 301.921 197.863 302.256 199.666 303.011C201.469 303.724 203.02 304.772 204.362 306.156C205.662 307.539 206.71 309.258 207.465 311.313C208.261 313.326 208.639 315.632 208.723 318.231C206.417 318.189 204.11 318.189 201.762 318.147C199.456 318.147 197.066 318.106 194.551 318.106C192.79 318.106 191.029 318.147 189.351 318.147C187.674 318.189 186.165 318.189 184.781 318.231C184.907 320.37 185.242 322.298 185.787 324.017C186.333 325.737 187.087 327.204 188.052 328.42C188.974 329.636 190.148 330.6 191.49 331.229C192.874 331.9 194.425 332.236 196.144 332.236C197.318 332.236 198.45 332.068 199.498 331.816C200.547 331.523 201.511 331.145 202.349 330.642C203.23 330.181 203.985 329.594 204.656 328.923C205.326 328.252 205.913 327.54 206.375 326.743L206.752 326.953L204.488 332.403C203.356 332.99 202.056 333.452 200.505 333.871C198.995 334.248 197.15 334.458 194.97 334.458ZM190.903 315.716C192.957 315.716 195.012 315.716 197.066 315.716C199.121 315.716 201.008 315.674 202.685 315.59C202.475 313.829 202.14 312.235 201.637 310.81C201.092 309.384 200.463 308.21 199.666 307.204C198.869 306.24 197.905 305.485 196.815 304.94C195.767 304.437 194.551 304.143 193.251 304.143C192.035 304.143 190.945 304.395 189.98 304.94C188.974 305.443 188.094 306.198 187.381 307.204C186.626 308.168 186.039 309.384 185.578 310.81C185.159 312.235 184.865 313.829 184.781 315.674C185.704 315.716 186.71 315.716 187.716 315.716H190.903ZM215.473 299.992C215.473 298.273 215.431 296.764 215.389 295.464C215.347 294.164 215.306 293.032 215.222 292.068C215.138 291.145 215.054 290.348 214.928 289.72C214.844 289.091 214.719 288.546 214.593 288.126V288H221.679V288.126C221.553 288.546 221.427 289.091 221.343 289.72C221.218 290.348 221.134 291.145 221.05 292.068C220.966 293.032 220.924 294.164 220.882 295.464C220.84 296.764 220.798 298.273 220.798 299.992V321.921C220.798 323.64 220.84 325.15 220.882 326.449C220.924 327.749 220.966 328.881 221.05 329.846C221.134 330.768 221.218 331.565 221.343 332.194C221.427 332.823 221.553 333.368 221.679 333.787V333.913H214.593V333.787C214.719 333.368 214.844 332.823 214.928 332.194C215.054 331.565 215.138 330.768 215.222 329.846C215.306 328.881 215.347 327.749 215.389 326.449C215.431 325.15 215.473 323.64 215.473 321.921V299.992ZM230.61 299.992C230.61 298.273 230.568 296.764 230.526 295.464C230.484 294.164 230.442 293.032 230.358 292.068C230.274 291.145 230.19 290.348 230.065 289.72C229.981 289.091 229.855 288.546 229.729 288.126V288H236.815V288.126C236.689 288.546 236.564 289.091 236.48 289.72C236.396 290.348 236.27 291.145 236.186 292.068C236.102 293.032 236.06 294.164 236.018 295.464C235.977 296.764 235.977 298.273 235.977 299.992V321.921C235.977 323.64 235.977 325.15 236.018 326.449C236.06 327.749 236.102 328.881 236.186 329.846C236.27 330.768 236.396 331.565 236.48 332.194C236.564 332.823 236.689 333.368 236.815 333.787V333.913H229.729V333.787C229.855 333.368 229.981 332.823 230.065 332.194C230.19 331.565 230.274 330.768 230.358 329.846C230.442 328.881 230.484 327.749 230.526 326.449C230.568 325.15 230.61 323.64 230.61 321.921V299.992ZM243.104 324.856C243.104 323.221 243.44 321.837 244.111 320.663C244.782 319.447 245.662 318.441 246.752 317.602C247.884 316.764 249.142 316.093 250.526 315.548C251.951 315.045 253.419 314.625 254.928 314.332C256.438 314.038 257.947 313.829 259.415 313.703C260.882 313.619 262.266 313.535 263.482 313.535V311.942C263.482 310.6 263.314 309.426 262.937 308.462C262.601 307.456 262.098 306.659 261.469 306.03C260.84 305.359 260.086 304.898 259.205 304.562C258.283 304.269 257.318 304.101 256.27 304.101C255.515 304.101 254.803 304.143 254.09 304.269C253.377 304.395 252.622 304.604 251.868 304.898C251.071 305.191 250.274 305.569 249.436 306.072C248.555 306.533 247.675 307.162 246.668 307.917L246.375 307.749L248.471 303.43C249.142 303.095 249.813 302.843 250.442 302.676C251.113 302.466 251.784 302.298 252.455 302.172C253.125 302.047 253.796 301.963 254.509 301.921C255.222 301.879 255.977 301.837 256.731 301.837C258.912 301.837 260.715 302.131 262.266 302.634C263.775 303.137 265.033 303.892 265.998 304.772C266.962 305.695 267.675 306.743 268.136 307.959C268.597 309.175 268.807 310.516 268.807 311.9V321.921C268.807 323.64 268.849 325.15 268.891 326.449C268.933 327.749 269.017 328.881 269.059 329.846C269.142 330.768 269.226 331.565 269.352 332.194C269.478 332.823 269.604 333.368 269.687 333.787V333.913H262.937V333.787C263.021 333.452 263.105 333.074 263.147 332.697C263.188 332.278 263.23 331.774 263.272 331.187C262.853 331.565 262.35 331.942 261.763 332.361C261.176 332.739 260.505 333.074 259.792 333.41C259.037 333.703 258.199 333.997 257.276 334.164C256.354 334.374 255.39 334.458 254.3 334.458C250.736 334.458 247.968 333.619 246.039 331.942C244.069 330.307 243.104 327.917 243.104 324.856ZM263.482 315.925C261.595 315.925 259.834 316.051 258.115 316.219C256.396 316.428 254.845 316.848 253.545 317.435C252.203 318.064 251.155 318.944 250.358 320.076C249.603 321.208 249.184 322.718 249.184 324.605C249.184 327.036 249.813 328.881 250.987 330.139C252.203 331.397 253.88 332.026 256.019 332.026C256.983 332.026 257.905 331.9 258.702 331.607C259.499 331.355 260.211 330.978 260.84 330.558C261.469 330.139 262.014 329.678 262.434 329.217C262.853 328.714 263.188 328.21 263.398 327.749C263.44 326.953 263.482 326.114 263.482 325.15V315.925ZM331.575 317.435C330.82 321.502 329.227 324.94 326.753 327.749C328.807 329.846 330.946 331.774 333.168 333.535C335.348 335.296 337.487 336.848 339.625 338.148C341.722 339.447 343.776 340.496 345.747 341.208C347.717 341.963 349.52 342.34 351.156 342.34C351.785 342.34 352.455 342.257 353.126 342.131V342.844C352.875 342.969 352.539 343.095 352.162 343.263C351.743 343.473 351.239 343.64 350.694 343.808C350.107 343.976 349.395 344.101 348.598 344.227C347.843 344.353 346.921 344.395 345.914 344.395C344.321 344.395 342.602 344.06 340.757 343.431C338.912 342.76 336.984 341.837 335.013 340.663C333 339.489 330.988 338.064 328.975 336.47C326.921 334.835 324.95 333.074 322.979 331.145C321.218 332.361 319.248 333.284 317.109 333.955C314.971 334.584 312.623 334.919 310.107 334.919C307.801 334.919 305.746 334.626 303.902 334.08C302.057 333.493 300.505 332.655 299.247 331.607C297.99 330.558 296.983 329.259 296.312 327.749C295.642 326.24 295.306 324.521 295.306 322.634C295.306 320.831 295.642 319.238 296.312 317.854C296.983 316.428 297.864 315.17 298.954 314.038C300.044 312.906 301.302 311.9 302.728 310.978C304.153 310.055 305.579 309.175 307.046 308.294C306.459 306.743 305.998 305.275 305.663 303.808C305.327 302.34 305.159 300.957 305.159 299.657C305.159 298.022 305.453 296.554 305.956 295.254C306.501 293.954 307.214 292.864 308.094 291.942C308.975 291.061 310.065 290.349 311.281 289.887C312.497 289.384 313.797 289.133 315.18 289.133C316.229 289.133 317.193 289.258 318.074 289.552C318.996 289.845 319.751 290.265 320.422 290.852C321.092 291.397 321.638 292.11 322.015 292.948C322.392 293.787 322.602 294.751 322.602 295.841C322.602 297.267 322.308 298.483 321.721 299.615C321.134 300.705 320.38 301.711 319.415 302.634C318.451 303.556 317.361 304.437 316.145 305.233C314.929 306.03 313.629 306.785 312.329 307.581C313 309.091 313.755 310.642 314.677 312.235C315.6 313.787 316.606 315.38 317.696 316.931C318.744 318.525 319.918 320.034 321.176 321.586C322.434 323.095 323.734 324.563 325.034 325.988C326.04 324.646 326.795 323.137 327.382 321.46C327.927 319.741 328.22 317.896 328.22 315.841C328.22 314.122 328.095 312.697 327.927 311.523C327.717 310.391 327.508 309.384 327.34 308.588V308.462H332.833V308.588C332.707 309.049 332.581 309.594 332.539 310.223C332.455 310.81 332.12 313.745 332.036 314.625C331.91 315.464 331.784 316.428 331.575 317.435ZM312.413 332.152C314.09 332.152 315.684 331.942 317.193 331.481C318.744 331.02 320.128 330.391 321.386 329.51C320.002 328.043 318.661 326.533 317.319 324.94C316.019 323.389 314.803 321.795 313.671 320.16C312.497 318.525 311.449 316.89 310.484 315.254C309.52 313.619 308.64 311.984 307.927 310.391C306.962 311.061 306.082 311.732 305.243 312.445C304.405 313.158 303.692 313.955 303.105 314.793C302.476 315.674 301.973 316.596 301.637 317.602C301.26 318.651 301.092 319.741 301.092 320.957C301.092 322.55 301.386 324.017 301.931 325.401C302.518 326.785 303.273 327.959 304.279 328.965C305.285 329.971 306.501 330.768 307.885 331.313C309.227 331.858 310.736 332.152 312.413 332.152ZM310.107 298.022C310.107 299.196 310.233 300.411 310.484 301.669C310.736 302.927 311.113 304.227 311.616 305.611C312.581 304.982 313.545 304.311 314.426 303.64C315.264 302.969 316.019 302.214 316.69 301.418C317.319 300.663 317.822 299.783 318.199 298.902C318.577 297.98 318.744 297.015 318.744 295.925C318.744 295.296 318.661 294.709 318.535 294.206C318.367 293.661 318.157 293.158 317.822 292.738C317.528 292.319 317.109 291.984 316.648 291.774C316.187 291.523 315.6 291.397 314.971 291.397C313.336 291.397 312.12 291.984 311.323 293.158C310.484 294.332 310.107 295.925 310.107 298.022ZM394.175 333.913V333.787C394.217 333.703 394.259 333.535 394.259 333.326C394.301 333.116 394.301 332.948 394.301 332.781C394.301 332.152 394.217 331.439 394.049 330.684C393.881 329.888 393.546 328.965 393.043 327.791L389.311 319.447C388.179 319.405 386.669 319.405 384.741 319.405H373.881C372.372 319.405 371.03 319.405 369.814 319.447L366.292 327.54C365.998 328.294 365.663 329.133 365.328 330.055C364.95 330.936 364.783 331.858 364.783 332.781C364.783 333.032 364.824 333.242 364.866 333.452C364.908 333.619 364.95 333.787 364.95 333.787V333.913H358.703V333.787C359.08 333.41 359.541 332.697 360.086 331.732C360.632 330.726 361.26 329.468 361.889 328.001L379.5 288.965H381.931L398.619 326.491C398.997 327.372 399.416 328.21 399.835 329.049C400.254 329.888 400.674 330.6 401.009 331.271C401.387 331.942 401.722 332.487 402.015 332.906C402.309 333.368 402.477 333.661 402.602 333.787V333.913H394.175ZM374.258 316.764C375.474 316.764 376.69 316.722 377.948 316.722C379.164 316.722 380.38 316.722 381.596 316.68C382.812 316.68 383.944 316.68 385.034 316.68C386.166 316.638 387.173 316.638 388.053 316.638L379.416 297.099L370.946 316.764H374.258ZM427.802 313.2C427.802 310.516 427.257 308.504 426.167 307.246C425.076 305.988 423.651 305.359 421.806 305.359C421.177 305.359 420.422 305.485 419.584 305.778C418.787 306.03 417.948 306.407 417.068 306.869C416.229 307.33 415.349 307.875 414.51 308.462C413.63 309.091 412.833 309.762 412.078 310.432L412.037 314.458V321.921C412.037 323.64 412.036 325.15 412.078 326.449C412.12 327.749 412.162 328.881 412.246 329.846C412.33 330.768 412.456 331.565 412.54 332.194C412.624 332.823 412.749 333.368 412.875 333.787V333.913H405.789V333.787C405.915 333.368 406.041 332.823 406.125 332.194C406.25 331.565 406.334 330.768 406.418 329.846C406.502 328.881 406.544 327.749 406.586 326.449C406.628 325.15 406.67 323.64 406.67 321.921V314.458C406.67 312.739 406.628 311.229 406.586 309.929C406.544 308.63 406.502 307.497 406.418 306.533C406.334 305.611 406.25 304.814 406.125 304.185C406.041 303.556 405.915 303.011 405.789 302.592V302.466H412.875V302.592C412.707 303.095 412.582 303.766 412.498 304.521C412.414 305.317 412.288 306.365 412.204 307.623C413.043 306.91 413.965 306.24 414.93 305.527C415.894 304.856 416.9 304.227 417.949 303.682C418.997 303.137 420.045 302.676 421.135 302.34C422.225 302.005 423.273 301.837 424.322 301.837C425.915 301.837 427.299 302.131 428.389 302.676C429.521 303.221 430.443 303.975 431.114 304.856C431.827 305.778 432.372 306.785 432.666 307.959C433.001 309.091 433.127 310.265 433.127 311.481V321.921C433.127 323.64 433.169 325.15 433.211 326.449C433.253 327.749 433.295 328.881 433.378 329.846C433.462 330.768 433.546 331.565 433.672 332.194C433.756 332.823 433.882 333.368 434.007 333.787V333.913H426.921V333.787C427.047 333.368 427.131 332.823 427.257 332.194C427.383 331.565 427.466 330.768 427.55 329.846C427.592 328.881 427.676 327.749 427.718 326.449C427.76 325.15 427.802 323.64 427.802 321.921V313.2ZM453.462 332.11C454.091 332.11 454.678 331.984 455.307 331.774C455.894 331.523 456.481 331.229 457.068 330.852C457.613 330.433 458.158 330.013 458.662 329.51C459.207 329.007 459.668 328.462 460.129 327.917L460.465 328.085L458.452 333.032C458.2 333.158 457.907 333.284 457.529 333.452C457.194 333.619 456.775 333.787 456.272 333.955C455.768 334.122 455.181 334.248 454.469 334.374C453.798 334.458 453.001 334.542 452.079 334.542C449.353 334.542 447.215 333.787 445.705 332.278C444.154 330.81 443.399 328.504 443.399 325.359V304.856L438.242 305.024V302.34C438.871 302.382 439.626 302.424 440.506 302.424C441.387 302.466 442.351 302.466 443.399 302.466C443.399 300.998 443.357 299.741 443.274 298.609C443.232 297.476 443.19 296.512 443.106 295.673C443.022 294.877 442.938 294.164 442.854 293.577C442.729 293.032 442.645 292.529 442.561 292.151V292.026H449.647V292.151C449.521 292.529 449.395 293.032 449.311 293.577C449.186 294.164 449.102 294.877 449.018 295.673C448.976 296.512 448.892 297.476 448.85 298.567C448.808 299.699 448.766 300.998 448.766 302.466C450.024 302.424 451.282 302.424 452.54 302.382C453.756 302.34 454.888 302.298 455.936 302.256C456.942 302.214 457.781 302.172 458.494 302.131C459.207 302.047 459.668 302.005 459.878 301.963L459.332 305.108C458.284 305.066 457.194 305.066 456.062 305.024C455.056 304.982 453.966 304.94 452.666 304.94C451.408 304.898 450.108 304.898 448.766 304.856V325.988C448.766 327.246 448.892 328.294 449.144 329.091C449.437 329.846 449.815 330.475 450.234 330.936C450.695 331.397 451.156 331.691 451.743 331.858C452.288 332.026 452.875 332.11 453.462 332.11ZM463.903 318.106C463.903 315.799 464.322 313.661 465.161 311.69C466.041 309.72 467.215 308.001 468.725 306.533C470.234 305.108 471.995 303.975 474.05 303.137C476.104 302.34 478.284 301.921 480.632 301.921C482.98 301.921 485.161 302.298 487.173 303.053C489.228 303.85 490.989 304.94 492.498 306.323C494.008 307.749 495.224 309.468 496.104 311.481C496.943 313.535 497.404 315.799 497.404 318.315C497.404 320.412 497.027 322.424 496.272 324.395C495.559 326.324 494.469 328.043 493.043 329.552C491.576 331.062 489.857 332.236 487.76 333.116C485.664 333.997 483.274 334.458 480.59 334.458C478.284 334.458 476.146 334.08 474.091 333.326C472.079 332.571 470.318 331.481 468.808 330.055C467.299 328.672 466.083 326.953 465.203 324.94C464.322 322.927 463.903 320.663 463.903 318.106ZM481.303 332.236C482.771 332.236 484.071 331.942 485.286 331.355C486.544 330.768 487.593 329.971 488.473 328.881C489.354 327.791 490.024 326.449 490.528 324.898C490.989 323.347 491.24 321.586 491.24 319.615C491.24 317.435 491.031 315.38 490.528 313.493C490.066 311.565 489.354 309.929 488.431 308.546C487.509 307.162 486.335 306.114 484.909 305.317C483.525 304.521 481.848 304.143 479.962 304.143C478.536 304.143 477.194 304.437 475.978 304.982C474.762 305.569 473.714 306.365 472.834 307.456C471.953 308.504 471.24 309.804 470.779 311.355C470.276 312.906 470.024 314.667 470.024 316.638C470.024 318.818 470.276 320.873 470.737 322.802C471.24 324.688 471.953 326.366 472.875 327.749C473.84 329.175 475.014 330.265 476.398 331.02C477.781 331.816 479.416 332.236 481.303 332.236ZM525.371 313.2C525.371 310.516 524.826 308.504 523.735 307.246C522.645 305.988 521.22 305.359 519.375 305.359C518.704 305.359 517.991 305.485 517.153 305.778C516.356 306.03 515.517 306.407 514.637 306.869C513.798 307.33 512.918 307.875 512.079 308.462C511.199 309.091 510.402 309.762 509.647 310.432L509.563 314.458V321.921C509.563 323.64 509.605 325.15 509.647 326.449C509.689 327.749 509.731 328.881 509.815 329.846C509.899 330.768 509.983 331.565 510.108 332.194C510.192 332.823 510.318 333.368 510.444 333.787V333.913H503.358V333.787C503.484 333.368 503.568 332.823 503.693 332.194C503.819 331.565 503.903 330.768 503.987 329.846C504.029 328.881 504.113 327.749 504.155 326.449C504.196 325.15 504.238 323.64 504.238 321.921V314.458C504.238 312.739 504.196 311.229 504.155 309.929C504.113 308.63 504.029 307.497 503.987 306.533C503.903 305.611 503.819 304.814 503.693 304.185C503.568 303.556 503.484 303.011 503.358 302.592V302.466H510.444V302.592C510.276 303.095 510.15 303.766 510.067 304.521C509.983 305.317 509.857 306.365 509.773 307.623C510.612 306.91 511.492 306.24 512.498 305.527C513.463 304.856 514.469 304.227 515.517 303.682C516.566 303.137 517.614 302.676 518.704 302.34C519.794 302.005 520.842 301.837 521.891 301.837C523.484 301.837 524.868 302.131 525.958 302.676C527.09 303.221 528.012 303.975 528.683 304.856C529.396 305.778 529.899 306.785 530.234 307.959C530.57 309.091 530.696 310.265 530.696 311.481V321.921C530.696 323.64 530.738 325.15 530.779 326.449C530.821 327.749 530.863 328.881 530.947 329.846C531.031 330.768 531.115 331.565 531.241 332.194C531.325 332.823 531.45 333.368 531.576 333.787V333.913H524.49V333.787C524.616 333.368 524.7 332.823 524.826 332.194C524.951 331.565 525.035 330.768 525.119 329.846C525.161 328.881 525.245 327.749 525.287 326.449C525.329 325.15 525.371 323.64 525.371 321.921V313.2ZM540.088 314.458C540.088 312.739 540.088 311.229 540.046 309.929C539.962 308.63 539.92 307.497 539.836 306.533C539.794 305.611 539.668 304.814 539.585 304.185C539.459 303.556 539.333 303.011 539.207 302.592V302.466H546.293V302.592C546.167 303.011 546.084 303.556 545.958 304.185C545.874 304.814 545.79 305.611 545.706 306.533C545.622 307.497 545.539 308.63 545.497 309.929C545.455 311.229 545.455 312.739 545.455 314.458V321.921C545.455 323.64 545.455 325.15 545.497 326.449C545.539 327.749 545.622 328.881 545.706 329.846C545.79 330.768 545.874 331.565 545.958 332.194C546.084 332.823 546.167 333.368 546.293 333.787V333.913H539.207V333.787C539.333 333.368 539.459 332.823 539.585 332.194C539.668 331.565 539.794 330.768 539.836 329.846C539.92 328.881 539.962 327.749 540.046 326.449C540.088 325.15 540.088 323.64 540.088 321.921V314.458ZM539.459 293.158C539.459 292.697 539.543 292.277 539.71 291.9C539.878 291.481 540.13 291.145 540.423 290.852C540.717 290.558 541.052 290.307 541.429 290.139C541.849 289.971 542.268 289.887 542.729 289.887C543.232 289.887 543.652 289.971 544.071 290.139C544.448 290.307 544.784 290.558 545.077 290.852C545.413 291.145 545.622 291.481 545.79 291.9C545.958 292.277 546.084 292.697 546.084 293.158C546.084 294.08 545.748 294.877 545.119 295.506C544.49 296.177 543.694 296.47 542.729 296.47C542.268 296.47 541.849 296.386 541.429 296.219C541.052 296.051 540.717 295.799 540.423 295.506C540.13 295.212 539.878 294.877 539.71 294.458C539.543 294.08 539.459 293.619 539.459 293.158ZM552.499 318.106C552.499 315.799 552.918 313.661 553.757 311.69C554.637 309.72 555.811 308.001 557.321 306.533C558.83 305.108 560.591 303.975 562.646 303.137C564.7 302.34 566.88 301.921 569.27 301.921C571.576 301.921 573.757 302.298 575.769 303.053C577.824 303.85 579.585 304.94 581.094 306.323C582.604 307.749 583.82 309.468 584.7 311.481C585.539 313.535 586 315.799 586 318.315C586 320.412 585.623 322.424 584.868 324.395C584.155 326.324 583.065 328.043 581.639 329.552C580.214 331.062 578.453 332.236 576.356 333.116C574.302 333.997 571.912 334.458 569.186 334.458C566.88 334.458 564.742 334.08 562.729 333.326C560.675 332.571 558.914 331.481 557.404 330.055C555.895 328.672 554.679 326.953 553.799 324.94C552.918 322.927 552.499 320.663 552.499 318.106ZM569.899 332.236C571.367 332.236 572.667 331.942 573.883 331.355C575.14 330.768 576.189 329.971 577.069 328.881C577.95 327.791 578.62 326.449 579.124 324.898C579.585 323.347 579.836 321.586 579.836 319.615C579.836 317.435 579.627 315.38 579.124 313.493C578.662 311.565 577.95 309.929 577.027 308.546C576.105 307.162 574.931 306.114 573.505 305.317C572.122 304.521 570.444 304.143 568.558 304.143C567.132 304.143 565.79 304.437 564.574 304.982C563.358 305.569 562.31 306.365 561.43 307.456C560.549 308.504 559.836 309.804 559.375 311.355C558.872 312.906 558.62 314.667 558.62 316.638C558.62 318.818 558.872 320.873 559.333 322.802C559.836 324.688 560.549 326.366 561.472 327.749C562.436 329.175 563.61 330.265 564.994 331.02C566.419 331.816 568.012 332.236 569.899 332.236ZM114.047 401.628C114.173 401.209 114.257 400.664 114.382 400.035C114.466 399.406 114.592 398.609 114.634 397.687C114.718 396.722 114.802 395.632 114.844 394.332C114.886 393.033 114.886 391.481 114.886 389.762V369.762C114.886 368.043 114.886 366.492 114.844 365.192C114.802 363.892 114.718 362.76 114.634 361.837C114.592 360.873 114.466 360.076 114.382 359.448C114.257 358.819 114.173 358.274 114.047 357.854V357.728H121.385V357.854C121.259 358.274 121.133 358.819 121.007 359.448C120.923 360.076 120.839 360.873 120.756 361.837C120.672 362.76 120.63 363.892 120.546 365.192C120.504 366.492 120.504 368.043 120.504 369.762V389.762C120.504 391.481 120.504 393.033 120.546 394.332C120.63 395.632 120.672 396.722 120.756 397.687C120.839 398.609 120.923 399.406 121.007 400.035C121.133 400.664 121.259 401.209 121.385 401.628V401.754H114.047V401.628ZM128.219 401.628C128.471 401.335 128.722 400.831 129.016 400.203C129.267 399.532 129.519 398.735 129.686 397.729C129.896 396.303 130.148 394.71 130.441 392.907C130.693 391.104 130.986 389.217 131.28 387.288C131.573 385.318 131.867 383.305 132.16 381.251C132.454 379.196 132.747 377.142 133.041 375.171C133.292 373.158 133.586 371.23 133.837 369.385C134.089 367.54 134.299 365.821 134.508 364.311C134.718 362.76 134.886 361.418 135.011 360.286C135.179 359.154 135.263 358.315 135.305 357.728H139.204L158.534 393.829L177.695 357.728H180.63L185.662 394.207C185.787 395.339 185.955 396.345 186.123 397.142C186.291 397.98 186.458 398.693 186.626 399.28C186.752 399.867 186.92 400.328 187.087 400.706C187.255 401.083 187.381 401.418 187.549 401.628V401.754H179.792V401.628C179.875 401.418 180.001 401.041 180.085 400.538C180.169 400.035 180.211 399.406 180.211 398.693C180.211 398.442 180.211 398.148 180.169 397.896C180.169 397.603 180.127 397.309 180.085 396.974L176.186 367.54L158.072 401.628L155.976 401.418L137.737 367.246C136.982 372.11 136.395 376.596 135.85 380.706C135.598 382.467 135.389 384.228 135.179 385.947C134.928 387.708 134.76 389.343 134.55 390.852C134.383 392.362 134.257 393.704 134.173 394.878C134.047 396.01 134.005 396.89 134.005 397.435C134.005 398.148 134.005 398.735 134.047 399.28C134.089 399.825 134.131 400.244 134.173 400.622C134.257 401.041 134.299 401.418 134.383 401.754H128.219V401.628ZM192.245 401.628C192.454 401.335 192.706 400.831 192.999 400.203C193.293 399.532 193.502 398.735 193.67 397.729C193.88 396.303 194.131 394.71 194.425 392.907C194.718 391.104 194.97 389.217 195.263 387.288C195.599 385.318 195.892 383.305 196.186 381.251C196.479 379.196 196.773 377.142 197.024 375.171C197.318 373.158 197.57 371.23 197.821 369.385C198.073 367.54 198.324 365.821 198.534 364.311C198.744 362.76 198.911 361.418 199.037 360.286C199.163 359.154 199.247 358.315 199.331 357.728H203.23L222.517 393.829L241.721 357.728H244.614L249.645 394.207C249.813 395.339 249.939 396.345 250.107 397.142C250.274 397.98 250.442 398.693 250.61 399.28C250.777 399.867 250.945 400.328 251.071 400.706C251.239 401.083 251.364 401.418 251.532 401.628V401.754H243.775V401.628C243.901 401.418 243.985 401.041 244.069 400.538C244.153 400.035 244.237 399.406 244.237 398.693C244.237 398.442 244.195 398.148 244.195 397.896C244.153 397.603 244.153 397.309 244.111 396.974L240.211 367.54L222.056 401.628L219.96 401.418L201.721 367.246C201.008 372.11 200.379 376.596 199.834 380.706C199.624 382.467 199.372 384.228 199.163 385.947C198.953 387.708 198.744 389.343 198.576 390.852C198.408 392.362 198.24 393.704 198.157 394.878C198.031 396.01 197.989 396.89 197.989 397.435C197.989 398.148 198.031 398.735 198.073 399.28C198.115 399.825 198.157 400.244 198.198 400.622C198.24 401.041 198.324 401.418 198.366 401.754H192.245V401.628ZM278.493 356.974C281.889 356.974 285.075 357.561 287.969 358.651C290.862 359.783 293.377 361.334 295.474 363.347C297.57 365.36 299.247 367.791 300.421 370.643C301.595 373.452 302.182 376.555 302.182 379.993C302.182 381.921 301.973 383.85 301.512 385.737C301.092 387.624 300.421 389.385 299.541 391.062C298.66 392.739 297.612 394.291 296.312 395.716C295.055 397.142 293.629 398.4 291.994 399.406C290.358 400.454 288.556 401.251 286.585 401.838C284.614 402.425 282.518 402.718 280.254 402.718C276.815 402.718 273.671 402.173 270.778 401.083C267.884 399.993 265.369 398.442 263.272 396.429C261.134 394.416 259.499 392.026 258.325 389.175C257.109 386.366 256.522 383.263 256.522 379.825C256.522 377.854 256.773 375.968 257.193 374.081C257.654 372.194 258.325 370.391 259.205 368.672C260.044 366.995 261.134 365.443 262.392 364.018C263.65 362.592 265.075 361.334 266.711 360.328C268.346 359.28 270.149 358.441 272.119 357.854C274.09 357.267 276.228 356.974 278.493 356.974ZM280.254 399.951C282.518 399.951 284.572 399.532 286.459 398.735C288.346 397.896 289.981 396.722 291.323 395.171C292.706 393.62 293.755 391.691 294.509 389.469C295.264 387.205 295.642 384.689 295.642 381.838C295.642 378.693 295.306 375.758 294.551 373.074C293.839 370.391 292.748 368.043 291.323 366.072C289.897 364.102 288.094 362.55 285.956 361.418C283.818 360.328 281.344 359.741 278.493 359.741C276.228 359.741 274.132 360.16 272.245 360.957C270.358 361.796 268.765 362.97 267.381 364.479C266.04 366.03 264.949 367.917 264.195 370.139C263.44 372.362 263.063 374.919 263.063 377.77C263.063 380.873 263.44 383.808 264.153 386.534C264.866 389.217 265.956 391.565 267.381 393.578C268.807 395.548 270.61 397.1 272.748 398.232C274.887 399.406 277.402 399.951 280.254 399.951ZM309.981 369.762C309.981 368.043 309.939 366.492 309.897 365.192C309.855 363.892 309.814 362.76 309.73 361.837C309.646 360.873 309.562 360.076 309.436 359.448C309.31 358.819 309.185 358.274 309.059 357.854V357.728C309.478 357.728 309.897 357.77 310.359 357.77C310.736 357.77 311.197 357.77 311.658 357.77H313.168C313.881 357.77 314.887 357.728 316.145 357.561C317.403 357.435 319.038 357.351 321.009 357.351C322.853 357.351 324.573 357.603 326.124 358.064C327.675 358.567 329.017 359.238 330.149 360.16C331.281 361.041 332.204 362.173 332.833 363.473C333.461 364.814 333.797 366.324 333.797 368.001C333.797 369.385 333.587 370.643 333.21 371.775C332.833 372.907 332.287 373.871 331.575 374.71C330.862 375.506 330.023 376.219 329.017 376.764C328.011 377.351 326.921 377.812 325.747 378.106C327.508 378.399 329.059 378.819 330.526 379.448C331.952 380.077 333.168 380.873 334.216 381.796C335.264 382.76 336.061 383.85 336.606 385.108C337.151 386.366 337.445 387.75 337.445 389.301C337.445 393.62 336.019 396.848 333.168 399.029C330.359 401.167 326.082 402.257 320.422 402.257C319.793 402.257 319.08 402.215 318.241 402.173C317.445 402.131 314.09 401.88 313.252 401.838C312.455 401.796 311.7 401.754 311.113 401.754H309.059V401.628C309.185 401.209 309.31 400.664 309.436 400.035C309.562 399.406 309.646 398.609 309.73 397.687C309.814 396.722 309.855 395.632 309.897 394.332C309.939 393.033 309.981 391.481 309.981 389.762V369.762ZM321.218 379.993C319.835 379.993 318.661 380.035 317.738 380.16C316.816 380.244 316.061 380.37 315.558 380.454V389.762C315.558 392.152 315.6 394.123 315.684 395.674C315.767 397.226 315.893 398.525 316.019 399.49C316.816 399.616 317.57 399.699 318.367 399.783C319.122 399.867 319.751 399.909 320.212 399.909C324.069 399.909 326.837 399.029 328.64 397.309C330.401 395.632 331.281 392.991 331.281 389.469C331.281 388.043 331.072 386.785 330.652 385.611C330.233 384.479 329.604 383.473 328.765 382.634C327.969 381.796 326.921 381.125 325.663 380.664C324.405 380.244 322.937 379.993 321.218 379.993ZM315.558 377.687C316.145 377.77 316.648 377.77 317.109 377.812C317.528 377.812 318.032 377.812 318.535 377.812C319.918 377.812 321.218 377.603 322.35 377.225C323.482 376.806 324.489 376.219 325.285 375.422C326.082 374.626 326.711 373.62 327.172 372.404C327.633 371.23 327.843 369.846 327.843 368.211C327.843 366.911 327.675 365.695 327.34 364.605C327.004 363.515 326.543 362.592 325.872 361.837C325.243 361.041 324.447 360.454 323.524 360.076C322.56 359.657 321.512 359.448 320.296 359.448C319.499 359.448 318.828 359.489 318.241 359.531C317.654 359.615 317.151 359.657 316.774 359.741C316.271 359.825 315.893 359.951 315.558 360.076V377.687ZM344.615 401.628C344.74 401.209 344.824 400.664 344.95 400.035C345.034 399.406 345.16 398.609 345.244 397.687C345.285 396.722 345.369 395.632 345.411 394.332C345.453 393.033 345.453 391.481 345.453 389.762V369.762C345.453 368.043 345.453 366.492 345.411 365.192C345.369 363.892 345.285 362.76 345.244 361.837C345.16 360.873 345.034 360.076 344.95 359.448C344.824 358.819 344.74 358.274 344.615 357.854V357.728H351.952V357.854C351.826 358.274 351.701 358.819 351.575 359.448C351.491 360.076 351.407 360.873 351.323 361.837C351.239 362.76 351.198 363.892 351.114 365.192C351.072 366.492 351.072 368.043 351.072 369.762V389.762C351.072 391.481 351.072 393.033 351.114 394.332C351.198 395.632 351.239 396.722 351.323 397.687C351.407 398.609 351.491 399.406 351.575 400.035C351.701 400.664 351.826 401.209 351.952 401.628V401.754H344.615V401.628ZM367.466 399.07C369.856 399.07 372.078 398.945 374.133 398.777C376.145 398.567 377.906 398.316 379.416 398.064C381.177 397.771 382.812 397.435 384.238 397.058L383.357 402.005C383.105 402.005 382.77 401.964 382.267 401.964C381.764 401.922 381.219 401.922 380.632 401.88C380.003 401.88 379.374 401.838 378.703 401.838C378.032 401.838 377.403 401.838 376.816 401.796C376.229 401.796 375.684 401.796 375.223 401.796C374.762 401.754 374.468 401.754 374.258 401.754H360.967V401.628C361.093 401.209 361.219 400.664 361.344 400.035C361.428 399.406 361.554 398.609 361.638 397.687C361.722 396.722 361.764 395.632 361.806 394.332C361.847 393.033 361.847 391.481 361.847 389.762V369.762C361.847 368.043 361.847 366.492 361.806 365.192C361.764 363.892 361.722 362.76 361.638 361.837C361.554 360.873 361.428 360.076 361.344 359.448C361.219 358.819 361.093 358.274 360.967 357.854V357.728H368.346V357.854C368.221 358.274 368.095 358.819 368.011 359.448C367.885 360.076 367.801 360.873 367.718 361.837C367.634 362.76 367.592 363.892 367.55 365.192C367.466 366.492 367.466 368.043 367.466 369.762V399.07ZM390.15 401.628C390.275 401.209 390.401 400.664 390.485 400.035C390.611 399.406 390.695 398.609 390.779 397.687C390.862 396.722 390.904 395.632 390.946 394.332C390.988 393.033 391.03 391.481 391.03 389.762V369.762C391.03 368.043 390.988 366.492 390.946 365.192C390.904 363.892 390.862 362.76 390.779 361.837C390.695 360.873 390.611 360.076 390.485 359.448C390.401 358.819 390.275 358.274 390.15 357.854V357.728H397.487V357.854C397.361 358.274 397.236 358.819 397.152 359.448C397.026 360.076 396.942 360.873 396.858 361.837C396.774 362.76 396.732 363.892 396.69 365.192C396.607 366.492 396.607 368.043 396.607 369.762V389.762C396.607 391.481 396.607 393.033 396.69 394.332C396.732 395.632 396.774 396.722 396.858 397.687C396.942 398.609 397.026 399.406 397.152 400.035C397.236 400.664 397.361 401.209 397.487 401.628V401.754H390.15V401.628ZM406.502 357.728C409.06 357.728 411.617 357.728 414.133 357.686C416.691 357.686 418.997 357.645 421.093 357.603C423.232 357.603 425.034 357.561 426.502 357.477C428.011 357.435 429.018 357.351 429.563 357.225L428.053 361.334C427.383 361.125 426.586 360.957 425.663 360.831C424.909 360.705 423.944 360.58 422.854 360.496C421.722 360.37 420.422 360.328 418.997 360.328C418.494 360.328 417.907 360.328 417.236 360.37C416.523 360.37 415.894 360.412 415.223 360.454C414.51 360.496 413.756 360.538 413.001 360.58V377.351C415.097 377.351 417.026 377.267 418.703 377.183C420.422 377.058 421.848 376.974 423.022 376.848C424.447 376.722 425.663 376.596 426.712 376.429L425.789 380.873C424.364 380.706 422.938 380.538 421.429 380.37C420.171 380.202 418.787 380.077 417.32 379.993C415.81 379.867 414.385 379.825 413.001 379.825V399.07C415.433 399.07 417.655 398.945 419.668 398.777C421.68 398.567 423.441 398.316 424.993 398.064C426.754 397.771 428.347 397.435 429.814 397.058L428.892 402.005C428.64 402.005 428.305 401.964 427.802 401.964C427.299 401.922 426.754 401.922 426.167 401.88C425.538 401.88 424.909 401.838 424.238 401.838C423.609 401.838 422.98 401.838 422.351 401.796C421.764 401.796 421.261 401.796 420.8 401.796C420.338 401.754 420.003 401.754 419.793 401.754H406.502V401.628C406.628 401.209 406.753 400.664 406.879 400.035C407.005 399.406 407.089 398.609 407.173 397.687C407.257 396.722 407.299 395.632 407.34 394.332C407.382 393.033 407.424 391.481 407.424 389.762V369.762C407.424 368.043 407.382 366.492 407.34 365.192C407.299 363.892 407.257 362.76 407.173 361.837C407.089 360.873 407.005 360.076 406.879 359.448C406.753 358.819 406.628 358.274 406.502 357.854V357.728ZM439.039 357.728L470.653 391.397V369.762C470.653 368.043 470.653 366.492 470.611 365.192C470.569 363.892 470.527 362.76 470.444 361.837C470.36 360.873 470.234 360.076 470.15 359.448C470.024 358.819 469.899 358.274 469.773 357.854V357.728H475.265V357.854C475.14 358.274 475.014 358.819 474.93 359.448C474.804 360.076 474.72 360.873 474.637 361.837C474.553 362.76 474.511 363.892 474.469 365.192C474.427 366.492 474.385 368.043 474.385 369.762V402.383H473.295L441.68 368.756V389.762C441.68 391.481 441.722 393.033 441.764 394.332C441.764 395.632 441.848 396.722 441.932 397.687C442.016 398.609 442.1 399.406 442.183 400.035C442.309 400.664 442.435 401.209 442.561 401.628V401.754H437.068V401.628C437.194 401.209 437.32 400.664 437.445 400.035C437.529 399.406 437.655 398.609 437.739 397.687C437.823 396.722 437.865 395.632 437.907 394.332C437.949 393.033 437.949 391.481 437.949 389.762V369.762C437.949 368.043 437.949 366.492 437.907 365.192C437.865 363.892 437.823 362.76 437.739 361.837C437.655 360.873 437.529 360.076 437.445 359.448C437.32 358.819 437.194 358.274 437.068 357.854V357.728H439.039Z" fill="#8F8F8F"/>
<defs>
<clipPath id="clip0_4_23">
<rect width="548" height="279" fill="white" transform="translate(20)"/>
</clipPath>
</defs>
</svg>
