<svg width="473" height="124" viewBox="0 0 473 124" fill="none" xmlns="http://www.w3.org/2000/svg">
<g clip-path="url(#clip0_3_2)">
<path d="M28.5742 37.0013V36.8999C28.6079 36.8323 28.6417 36.6972 28.6417 36.5282C28.6755 36.3593 28.6755 36.2241 28.6755 36.089C28.6755 35.5821 28.6079 35.0077 28.4728 34.3995C28.3376 33.7575 28.0673 33.0141 27.6618 32.068L24.6884 25.3439C23.7422 25.3101 22.5258 25.3101 20.9715 25.3101H12.2538C11.0374 25.3101 9.9223 25.3101 8.9424 25.3439L6.10407 31.8653C5.86755 32.4735 5.59723 33.1493 5.32691 33.8926C5.0566 34.6022 4.88765 35.3456 4.88765 36.089C4.88765 36.2917 4.92144 36.4606 4.95523 36.6296C4.98902 36.7648 5.0566 36.8999 5.0566 36.8999V37.0013H-0.0118446V36.8999C0.292262 36.5958 0.663947 36.0214 1.10321 35.2442C1.54248 34.4333 2.04932 33.4196 2.58995 32.2369L16.7478 0.778824H18.7414L32.1896 31.0205C32.4938 31.7301 32.7979 32.4059 33.1358 33.0817C33.4736 33.7575 33.8115 34.3319 34.1157 34.8725C34.386 35.4132 34.6563 35.8524 34.8928 36.1903C35.1293 36.562 35.2983 36.7985 35.3659 36.8999V37.0013H28.5742ZM12.5579 23.1813C13.504 23.1813 14.4839 23.1475 15.4976 23.1475C16.5113 23.1475 17.4912 23.1475 18.4373 23.1138C19.4172 23.1138 20.3295 23.1138 21.2418 23.1138C22.1203 23.08 22.9313 23.08 23.6747 23.08L16.714 7.33401L9.88851 23.1813H12.5579ZM55.6734 20.3092C55.6734 18.1467 55.2342 16.5248 54.3556 15.5111C53.5109 14.4974 52.3282 13.9906 50.8415 13.9906C50.3347 13.9906 49.7264 14.0919 49.0844 14.3285C48.4087 14.5312 47.7329 14.8353 47.0571 15.207C46.3475 15.5787 45.6717 16.0179 44.9621 16.491C44.2863 16.9978 43.6105 17.5385 43.0023 18.0791L42.9685 21.3229V27.3375C42.9685 28.7228 42.9685 29.9393 43.0023 30.9867C43.0361 32.0342 43.1037 32.9465 43.1713 33.7237C43.2388 34.4671 43.3064 35.1091 43.374 35.6159C43.4754 36.1227 43.5429 36.562 43.6443 36.8999V37.0013H37.9339V36.8999C38.0352 36.562 38.1366 36.1227 38.238 35.6159C38.3056 35.1091 38.3731 34.4671 38.4407 33.7237C38.5083 32.9465 38.5421 32.0342 38.6097 30.9867C38.6435 29.9393 38.6435 28.7228 38.6435 27.3375V21.3229C38.6435 19.9375 38.6435 18.7211 38.6097 17.6736C38.5421 16.6261 38.5083 15.7138 38.4407 14.9367C38.3731 14.1933 38.3056 13.5513 38.238 13.0445C38.1366 12.5376 38.0352 12.0983 37.9339 11.7604V11.6591H43.6443V11.7604C43.5092 12.1659 43.4078 12.7066 43.3402 13.3148C43.2726 13.9568 43.2051 14.8015 43.1037 15.8152C43.7795 15.2408 44.5228 14.7001 45.3 14.1257C46.0772 13.5851 46.8881 13.0782 47.7329 12.639C48.5776 12.1997 49.4223 11.828 50.3009 11.5577C51.1794 11.2874 52.0579 11.1522 52.9027 11.1522C54.1867 11.1522 55.2679 11.3888 56.1803 11.828C57.0588 12.2673 57.8022 12.8755 58.3766 13.5851C58.951 14.3285 59.3565 15.1394 59.593 16.0855C59.8633 16.9978 59.9985 17.9439 59.9985 18.9238V27.3375C59.9985 28.7228 59.9985 29.9393 60.0323 30.9867C60.0661 32.0342 60.1336 32.9465 60.2012 33.7237C60.2688 34.4671 60.3364 35.1091 60.404 35.6159C60.5053 36.1227 60.5729 36.562 60.6743 36.8999V37.0013H54.9638V36.8999C55.0652 36.562 55.1666 36.1227 55.2342 35.6159C55.3355 35.1091 55.4031 34.4671 55.4707 33.7237C55.5383 32.9465 55.572 32.0342 55.6058 30.9867C55.6734 29.9393 55.6734 28.7228 55.6734 27.3375V20.3092ZM76.3864 35.5483C76.8595 35.5483 77.3663 35.447 77.8394 35.278C78.3462 35.0753 78.8193 34.8387 79.2586 34.5346C79.6978 34.1967 80.1371 33.8588 80.5764 33.4534C80.9818 33.0479 81.3873 32.6086 81.759 32.1694L81.9955 32.3045L80.3736 36.2917C80.1709 36.3931 79.9344 36.4944 79.664 36.6296C79.3599 36.7648 79.022 36.8999 78.6166 37.0351C78.2111 37.1702 77.738 37.2716 77.1974 37.373C76.6568 37.4405 76.0148 37.5081 75.2714 37.5081C73.0413 37.5081 71.318 36.8999 70.1016 35.6835C68.8852 34.5008 68.2432 32.6424 68.2432 30.1082V13.5851L64.087 13.7202V11.5577C64.5939 11.5915 65.2359 11.6253 65.9455 11.6253C66.655 11.6591 67.3984 11.6591 68.2432 11.6591C68.2432 10.4764 68.2094 9.46275 68.1756 8.55043C68.1418 7.63811 68.0742 6.86096 68.0066 6.18516C67.9728 5.54316 67.9053 4.96874 67.8039 4.49568C67.7363 4.05642 67.6349 3.65094 67.5674 3.34683V3.24546H73.2778V3.34683C73.1764 3.65094 73.0751 4.05642 73.0075 4.49568C72.9399 4.96874 72.8385 5.54316 72.8048 6.18516C72.7372 6.86096 72.7034 7.63812 72.6358 8.51665C72.602 9.42897 72.5682 10.4764 72.5682 11.6591C73.6157 11.6253 74.6294 11.6253 75.6093 11.5915C76.623 11.5577 77.5353 11.5239 78.3462 11.4901C79.1572 11.4563 79.8668 11.4226 80.4074 11.3888C80.9818 11.3212 81.3535 11.2874 81.5563 11.2536L81.0832 13.7878C80.2722 13.754 79.3599 13.754 78.4476 13.7202C77.6704 13.6865 76.7581 13.6527 75.7444 13.6527C74.697 13.6189 73.6495 13.6189 72.5682 13.5851V30.615C72.5682 31.6287 72.6696 32.4735 72.9061 33.1155C73.1089 33.7237 73.413 34.2305 73.7509 34.6022C74.1225 34.9739 74.528 35.2104 74.9673 35.3456C75.4403 35.4807 75.8796 35.5483 76.3864 35.5483ZM84.7663 24.2626C84.7663 22.4042 85.1042 20.6809 85.8137 19.0928C86.4895 17.5047 87.4356 16.1193 88.6521 14.9367C89.8685 13.7878 91.3215 12.8755 92.9434 12.1997C94.599 11.5577 96.3899 11.2198 98.2821 11.2198C100.141 11.2198 101.898 11.5239 103.519 12.1321C105.175 12.7741 106.594 13.6527 107.845 14.7677C109.061 15.9166 110.007 17.3019 110.717 18.9238C111.426 20.5795 111.764 22.4042 111.764 24.4315C111.764 26.121 111.46 27.7429 110.886 29.331C110.277 30.8854 109.399 32.2707 108.25 33.4872C107.101 34.7036 105.682 35.6497 103.993 36.3593C102.337 37.0689 100.411 37.4405 98.2145 37.4405C96.3899 37.4405 94.6328 37.1364 93.0109 36.5282C91.3552 35.92 89.9361 35.0415 88.7197 33.8926C87.5032 32.7776 86.5233 31.3922 85.8137 29.7703C85.1042 28.1484 84.7663 26.3238 84.7663 24.2626ZM98.7889 35.6497C99.9716 35.6497 101.053 35.4132 102.033 34.9401C103.013 34.4671 103.857 33.8251 104.567 32.9465C105.277 32.068 105.817 30.9867 106.223 29.7365C106.628 28.4863 106.797 27.0671 106.797 25.479C106.797 23.722 106.628 22.0663 106.256 20.5457C105.851 18.9914 105.31 17.6736 104.533 16.5586C103.79 15.4435 102.844 14.5988 101.729 13.9568C100.58 13.3148 99.262 13.0107 97.7415 13.0107C96.5588 13.0107 95.4776 13.2472 94.4977 13.6865C93.5516 14.1595 92.7068 14.8015 91.9635 15.68C91.2539 16.5248 90.7132 17.5723 90.3078 18.8225C89.9023 20.0727 89.6996 21.4919 89.6996 23.08C89.6996 24.837 89.9023 26.4927 90.3078 28.047C90.6794 29.5676 91.2539 30.9192 91.9972 32.0342C92.7744 33.1831 93.7205 34.0616 94.8356 34.6698C95.9844 35.3118 97.3022 35.6497 98.7889 35.6497ZM134.302 20.3092C134.302 18.1467 133.863 16.5248 132.984 15.5111C132.139 14.4974 130.957 13.9906 129.47 13.9906C128.963 13.9906 128.355 14.0919 127.713 14.3285C127.037 14.5312 126.361 14.8353 125.685 15.207C124.976 15.5787 124.3 16.0179 123.591 16.491C122.915 16.9978 122.239 17.5385 121.631 18.0791L121.597 21.3229V27.3375C121.597 28.7228 121.597 29.9393 121.631 30.9867C121.665 32.0342 121.732 32.9465 121.8 33.7237C121.867 34.4671 121.935 35.1091 122.002 35.6159C122.104 36.1227 122.171 36.562 122.273 36.8999V37.0013H116.562V36.8999C116.664 36.562 116.765 36.1227 116.833 35.6159C116.934 35.1091 117.002 34.4671 117.069 33.7237C117.137 32.9465 117.17 32.0342 117.204 30.9867C117.272 29.9393 117.272 28.7228 117.272 27.3375V21.3229C117.272 19.9375 117.272 18.7211 117.204 17.6736C117.17 16.6261 117.137 15.7138 117.069 14.9367C117.002 14.1933 116.934 13.5513 116.833 13.0445C116.765 12.5376 116.664 12.0983 116.562 11.7604V11.6591H122.273V11.7604C122.138 12.1659 122.036 12.7066 121.969 13.3148C121.901 13.9568 121.833 14.8015 121.732 15.8152C122.408 15.2408 123.151 14.7001 123.928 14.1257C124.706 13.5851 125.517 13.0782 126.361 12.639C127.206 12.1997 128.051 11.828 128.929 11.5577C129.808 11.2874 130.686 11.1522 131.497 11.1522C132.815 11.1522 133.896 11.3888 134.775 11.828C135.687 12.2673 136.431 12.8755 137.005 13.5851C137.579 14.3285 137.985 15.1394 138.221 16.0855C138.492 16.9978 138.627 17.9439 138.627 18.9238V27.3375C138.627 28.7228 138.627 29.9393 138.661 30.9867C138.694 32.0342 138.762 32.9465 138.83 33.7237C138.863 34.4671 138.965 35.1091 139.032 35.6159C139.134 36.1227 139.201 36.562 139.303 36.8999V37.0013H133.592V36.8999C133.694 36.562 133.795 36.1227 133.863 35.6159C133.964 35.1091 134.032 34.4671 134.099 33.7237C134.167 32.9465 134.2 32.0342 134.234 30.9867C134.302 29.9393 134.302 28.7228 134.302 27.3375V20.3092ZM157.11 37.4405C155.285 37.4405 153.596 37.1702 151.974 36.562C150.386 35.9876 149 35.1429 147.784 34.0278C146.601 32.9127 145.689 31.5612 144.979 29.9055C144.304 28.2836 143.966 26.3913 143.966 24.2626C143.966 22.4042 144.27 20.6809 144.912 19.0928C145.52 17.5047 146.398 16.1193 147.514 14.9367C148.595 13.7878 149.913 12.8755 151.366 12.1997C152.852 11.5577 154.44 11.2198 156.164 11.2198C157.853 11.2198 159.441 11.4901 160.894 12.0983C162.347 12.6728 163.597 13.5175 164.679 14.6326C165.726 15.7476 166.571 17.133 167.179 18.7887C167.821 20.4106 168.125 22.269 168.193 24.364C166.334 24.3302 164.476 24.3302 162.584 24.2964C160.725 24.2964 158.799 24.2626 156.772 24.2626C155.353 24.2626 153.934 24.2964 152.582 24.2964C151.23 24.3302 150.014 24.3302 148.899 24.364C149 26.0872 149.271 27.6416 149.71 29.0269C150.149 30.4123 150.757 31.5949 151.535 32.5748C152.278 33.5547 153.224 34.3319 154.305 34.8387C155.42 35.3794 156.671 35.6497 158.056 35.6497C159.002 35.6497 159.914 35.5145 160.759 35.3118C161.604 35.0753 162.381 34.7712 163.057 34.3657C163.766 33.994 164.375 33.5209 164.915 32.9803C165.456 32.4397 165.929 31.8653 166.301 31.2233L166.605 31.3922L164.78 35.7849C163.868 36.2579 162.82 36.6296 161.57 36.9675C160.354 37.2716 158.867 37.4405 157.11 37.4405ZM153.832 22.3366C155.488 22.3366 157.144 22.3366 158.799 22.3366C160.455 22.3366 161.975 22.3028 163.327 22.2352C163.158 20.8161 162.888 19.5321 162.482 18.3832C162.043 17.2344 161.536 16.2882 160.894 15.4773C160.252 14.7001 159.475 14.0919 158.597 13.6527C157.752 13.2472 156.772 13.0107 155.724 13.0107C154.745 13.0107 153.866 13.2134 153.089 13.6527C152.278 14.0581 151.568 14.6663 150.994 15.4773C150.386 16.2545 149.913 17.2344 149.541 18.3832C149.203 19.5321 148.967 20.8161 148.899 22.3028C149.642 22.3366 150.453 22.3366 151.264 22.3366H153.832ZM173.633 9.66549C173.633 8.28012 173.599 7.06369 173.565 6.01621C173.532 4.96873 173.498 4.05642 173.43 3.27926C173.363 2.53589 173.295 1.89389 173.194 1.38704C173.126 0.880197 173.025 0.440929 172.923 0.103033V0.00166353H178.634V0.103033C178.532 0.440929 178.431 0.880197 178.363 1.38704C178.262 1.89389 178.195 2.53589 178.127 3.27926C178.059 4.05642 178.026 4.96873 177.992 6.01621C177.958 7.06369 177.924 8.28012 177.924 9.66549V27.3375C177.924 28.7228 177.958 29.9393 177.992 30.9867C178.026 32.0342 178.059 32.9465 178.127 33.7237C178.195 34.4671 178.262 35.1091 178.363 35.6159C178.431 36.1227 178.532 36.562 178.634 36.8999V37.0013H172.923V36.8999C173.025 36.562 173.126 36.1227 173.194 35.6159C173.295 35.1091 173.363 34.4671 173.43 33.7237C173.498 32.9465 173.532 32.0342 173.565 30.9867C173.599 29.9393 173.633 28.7228 173.633 27.3375V9.66549ZM185.831 9.66549C185.831 8.28012 185.797 7.06369 185.763 6.01621C185.73 4.96873 185.696 4.05642 185.628 3.27926C185.561 2.53589 185.493 1.89389 185.392 1.38704C185.324 0.880197 185.223 0.440929 185.121 0.103033V0.00166353H190.832V0.103033C190.73 0.440929 190.629 0.880197 190.561 1.38704C190.494 1.89389 190.393 2.53589 190.325 3.27926C190.257 4.05642 190.224 4.96873 190.19 6.01621C190.156 7.06369 190.156 8.28012 190.156 9.66549V27.3375C190.156 28.7228 190.156 29.9393 190.19 30.9867C190.224 32.0342 190.257 32.9465 190.325 33.7237C190.393 34.4671 190.494 35.1091 190.561 35.6159C190.629 36.1227 190.73 36.562 190.832 36.8999V37.0013H185.121V36.8999C185.223 36.562 185.324 36.1227 185.392 35.6159C185.493 35.1091 185.561 34.4671 185.628 33.7237C185.696 32.9465 185.73 32.0342 185.763 30.9867C185.797 29.9393 185.831 28.7228 185.831 27.3375V9.66549ZM195.9 29.7027C195.9 28.3849 196.171 27.2699 196.711 26.3238C197.252 25.3439 197.961 24.5329 198.84 23.8571C199.752 23.1813 200.766 22.6407 201.881 22.2014C203.03 21.796 204.212 21.4581 205.429 21.2215C206.645 20.985 207.862 20.8161 209.044 20.7147C210.227 20.6471 211.342 20.5795 212.322 20.5795V19.2955C212.322 18.2143 212.187 17.2682 211.883 16.491C211.612 15.68 211.207 15.038 210.7 14.5312C210.193 13.9906 209.585 13.6189 208.875 13.3486C208.132 13.112 207.355 12.9769 206.51 12.9769C205.902 12.9769 205.328 13.0107 204.753 13.112C204.179 13.2134 203.57 13.3823 202.962 13.6189C202.32 13.8554 201.678 14.1595 201.002 14.565C200.293 14.9367 199.583 15.4435 198.772 16.0517L198.536 15.9166L200.225 12.4362C200.766 12.1659 201.307 11.9632 201.813 11.828C202.354 11.6591 202.895 11.5239 203.435 11.4226C203.976 11.3212 204.517 11.2536 205.091 11.2198C205.665 11.186 206.274 11.1522 206.882 11.1522C208.639 11.1522 210.092 11.3888 211.342 11.7942C212.559 12.1997 213.572 12.8079 214.349 13.5175C215.127 14.2609 215.701 15.1056 216.073 16.0855C216.444 17.0654 216.613 18.1467 216.613 19.2617V27.3375C216.613 28.7228 216.647 29.9393 216.681 30.9867C216.715 32.0342 216.782 32.9465 216.816 33.7237C216.884 34.4671 216.951 35.1091 217.053 35.6159C217.154 36.1227 217.255 36.562 217.323 36.8999V37.0013H211.883V36.8999C211.95 36.6296 212.018 36.3255 212.052 36.0214C212.085 35.6835 212.119 35.278 212.153 34.805C211.815 35.1091 211.41 35.4132 210.937 35.7511C210.464 36.0552 209.923 36.3255 209.349 36.5958C208.74 36.8323 208.065 37.0689 207.321 37.204C206.578 37.373 205.801 37.4405 204.922 37.4405C202.05 37.4405 199.82 36.7648 198.266 35.4132C196.677 34.0954 195.9 32.1694 195.9 29.7027ZM212.322 22.5055C210.801 22.5055 209.382 22.6069 207.997 22.7421C206.612 22.911 205.361 23.2489 204.314 23.722C203.233 24.2288 202.388 24.9384 201.746 25.8507C201.138 26.763 200.8 27.9795 200.8 29.5C200.8 31.4598 201.307 32.9465 202.253 33.9602C203.233 34.9739 204.584 35.4807 206.307 35.4807C207.085 35.4807 207.828 35.3794 208.47 35.1429C209.112 34.9401 209.686 34.636 210.193 34.2981C210.7 33.9602 211.139 33.5885 211.477 33.2168C211.815 32.8114 212.085 32.4059 212.254 32.0342C212.288 31.3922 212.322 30.7164 212.322 29.9393V22.5055ZM267.196 23.722C266.588 26.9996 265.304 29.7703 263.311 32.0342C264.966 33.7237 266.689 35.278 268.48 36.6972C270.237 38.1163 271.961 39.3666 273.684 40.414C275.373 41.4615 277.029 42.3062 278.617 42.8807C280.205 43.4889 281.658 43.793 282.976 43.793C283.483 43.793 284.024 43.7254 284.564 43.624V44.1985C284.361 44.2998 284.091 44.4012 283.787 44.5364C283.449 44.7053 283.044 44.8405 282.604 44.9756C282.131 45.1108 281.557 45.2122 280.915 45.3135C280.307 45.4149 279.563 45.4487 278.752 45.4487C277.468 45.4487 276.083 45.1784 274.596 44.6715C273.11 44.1309 271.555 43.3875 269.967 42.4414C268.345 41.4953 266.723 40.3464 265.101 39.0624C263.446 37.7446 261.858 36.3255 260.269 34.7712C258.85 35.7511 257.262 36.4944 255.539 37.0351C253.816 37.5419 251.923 37.8122 249.896 37.8122C248.038 37.8122 246.382 37.5757 244.895 37.1364C243.408 36.6634 242.158 35.9876 241.145 35.1429C240.131 34.2981 239.32 33.2506 238.779 32.0342C238.239 30.8178 237.968 29.4324 237.968 27.9119C237.968 26.4589 238.239 25.1749 238.779 24.0599C239.32 22.911 240.029 21.8973 240.908 20.985C241.787 20.0727 242.8 19.2617 243.949 18.5184C245.098 17.775 246.247 17.0654 247.429 16.3558C246.956 15.1056 246.585 13.923 246.314 12.7403C246.044 11.5577 245.909 10.4427 245.909 9.39518C245.909 8.07738 246.145 6.89475 246.551 5.84727C246.99 4.79979 247.565 3.92126 248.274 3.17789C248.984 2.46831 249.862 1.89388 250.842 1.5222C251.822 1.11672 252.87 0.913981 253.985 0.913981C254.829 0.913981 255.606 1.01536 256.316 1.25188C257.059 1.48841 257.668 1.8263 258.208 2.29936C258.749 2.73862 259.188 3.31305 259.492 3.98884C259.796 4.66463 259.965 5.44179 259.965 6.32032C259.965 7.46917 259.729 8.44906 259.256 9.36138C258.783 10.2399 258.174 11.0509 257.397 11.7942C256.62 12.5376 255.742 13.2472 254.762 13.8892C253.782 14.5312 252.734 15.1394 251.687 15.7814C252.228 16.9978 252.836 18.2481 253.579 19.5321C254.322 20.7823 255.133 22.0663 256.012 23.3165C256.857 24.6005 257.803 25.8169 258.816 27.0671C259.83 28.2836 260.878 29.4662 261.925 30.615C262.736 29.5338 263.344 28.3174 263.817 26.9658C264.257 25.5804 264.493 24.0936 264.493 22.438C264.493 21.0526 264.392 19.9037 264.257 18.9576C264.088 18.0453 263.919 17.2344 263.784 16.5924V16.491H268.21V16.5924C268.109 16.964 268.007 17.4033 267.973 17.9102C267.906 18.3832 267.636 20.7485 267.568 21.4581C267.467 22.1339 267.365 22.911 267.196 23.722ZM251.754 35.5821C253.106 35.5821 254.39 35.4132 255.606 35.0415C256.857 34.6698 257.972 34.1629 258.985 33.4534C257.87 32.2707 256.789 31.0543 255.708 29.7703C254.66 28.5201 253.68 27.2361 252.768 25.9183C251.822 24.6005 250.977 23.2827 250.2 21.9649C249.423 20.6471 248.713 19.3293 248.139 18.0453C247.362 18.5859 246.652 19.1266 245.976 19.701C245.301 20.2754 244.726 20.9174 244.253 21.5932C243.746 22.3028 243.341 23.0462 243.071 23.8571C242.766 24.7019 242.631 25.5804 242.631 26.5603C242.631 27.8443 242.868 29.0269 243.307 30.142C243.78 31.257 244.388 32.2032 245.199 33.0141C246.01 33.8251 246.99 34.4671 248.105 34.9063C249.186 35.3456 250.403 35.5821 251.754 35.5821ZM249.896 8.07738C249.896 9.02349 249.997 10.0034 250.2 11.0171C250.403 12.0308 250.707 13.0782 251.112 14.1933C251.89 13.6865 252.667 13.1458 253.376 12.6052C254.052 12.0646 254.66 11.4563 255.201 10.8143C255.708 10.2061 256.113 9.49654 256.417 8.78696C256.722 8.04359 256.857 7.26643 256.857 6.3879C256.857 5.88106 256.789 5.408 256.688 5.00252C256.553 4.56326 256.384 4.15779 256.113 3.81989C255.877 3.482 255.539 3.21168 255.167 3.04273C254.796 2.84 254.322 2.73862 253.816 2.73862C252.498 2.73862 251.518 3.21168 250.876 4.15779C250.2 5.1039 249.896 6.3879 249.896 8.07738ZM317.644 37.0013V36.8999C317.678 36.8323 317.712 36.6972 317.712 36.5282C317.746 36.3593 317.746 36.2241 317.746 36.089C317.746 35.5821 317.678 35.0077 317.543 34.3995C317.408 33.7575 317.137 33.0141 316.732 32.068L313.725 25.3439C312.812 25.3101 311.596 25.3101 310.042 25.3101H301.29C300.074 25.3101 298.992 25.3101 298.012 25.3439L295.174 31.8653C294.938 32.4735 294.667 33.1493 294.397 33.8926C294.093 34.6022 293.958 35.3456 293.958 36.089C293.958 36.2917 293.991 36.4606 294.025 36.6296C294.059 36.7648 294.093 36.8999 294.093 36.8999V37.0013H289.058V36.8999C289.362 36.5958 289.734 36.0214 290.173 35.2442C290.613 34.4333 291.119 33.4196 291.626 32.2369L305.818 0.778824H307.778L321.226 31.0205C321.53 31.7301 321.868 32.4059 322.206 33.0817C322.544 33.7575 322.882 34.3319 323.152 34.8725C323.456 35.4132 323.726 35.8524 323.963 36.1903C324.199 36.562 324.335 36.7985 324.436 36.8999V37.0013H317.644ZM301.594 23.1813C302.574 23.1813 303.554 23.1475 304.568 23.1475C305.548 23.1475 306.527 23.1475 307.507 23.1138C308.487 23.1138 309.4 23.1138 310.278 23.1138C311.19 23.08 312.001 23.08 312.711 23.08L305.75 7.33401L298.925 23.1813H301.594ZM344.743 20.3092C344.743 18.1467 344.304 16.5248 343.426 15.5111C342.547 14.4974 341.398 13.9906 339.912 13.9906C339.405 13.9906 338.796 14.0919 338.121 14.3285C337.479 14.5312 336.803 14.8353 336.093 15.207C335.418 15.5787 334.708 16.0179 334.032 16.491C333.323 16.9978 332.681 17.5385 332.072 18.0791L332.039 21.3229V27.3375C332.039 28.7228 332.039 29.9393 332.072 30.9867C332.106 32.0342 332.14 32.9465 332.208 33.7237C332.275 34.4671 332.376 35.1091 332.444 35.6159C332.512 36.1227 332.613 36.562 332.714 36.8999V37.0013H327.004V36.8999C327.105 36.562 327.207 36.1227 327.274 35.6159C327.376 35.1091 327.443 34.4671 327.511 33.7237C327.578 32.9465 327.612 32.0342 327.646 30.9867C327.68 29.9393 327.714 28.7228 327.714 27.3375V21.3229C327.714 19.9375 327.68 18.7211 327.646 17.6736C327.612 16.6261 327.578 15.7138 327.511 14.9367C327.443 14.1933 327.376 13.5513 327.274 13.0445C327.207 12.5376 327.105 12.0983 327.004 11.7604V11.6591H332.714V11.7604C332.579 12.1659 332.478 12.7066 332.41 13.3148C332.343 13.9568 332.241 14.8015 332.174 15.8152C332.85 15.2408 333.593 14.7001 334.37 14.1257C335.147 13.5851 335.958 13.0782 336.803 12.639C337.648 12.1997 338.492 11.828 339.371 11.5577C340.249 11.2874 341.094 11.1522 341.939 11.1522C343.223 11.1522 344.338 11.3888 345.217 11.828C346.129 12.2673 346.872 12.8755 347.413 13.5851C347.987 14.3285 348.427 15.1394 348.663 16.0855C348.933 16.9978 349.035 17.9439 349.035 18.9238V27.3375C349.035 28.7228 349.069 29.9393 349.102 30.9867C349.136 32.0342 349.17 32.9465 349.237 33.7237C349.305 34.4671 349.373 35.1091 349.474 35.6159C349.542 36.1227 349.643 36.562 349.744 36.8999V37.0013H344.034V36.8999C344.135 36.562 344.203 36.1227 344.304 35.6159C344.406 35.1091 344.473 34.4671 344.541 33.7237C344.575 32.9465 344.642 32.0342 344.676 30.9867C344.71 29.9393 344.743 28.7228 344.743 27.3375V20.3092ZM365.423 35.5483C365.93 35.5483 366.403 35.447 366.909 35.278C367.382 35.0753 367.856 34.8387 368.329 34.5346C368.768 34.1967 369.207 33.8588 369.613 33.4534C370.052 33.0479 370.424 32.6086 370.795 32.1694L371.066 32.3045L369.444 36.2917C369.241 36.3931 369.004 36.4944 368.7 36.6296C368.43 36.7648 368.092 36.8999 367.687 37.0351C367.281 37.1702 366.808 37.2716 366.234 37.373C365.693 37.4405 365.051 37.5081 364.308 37.5081C362.111 37.5081 360.388 36.8999 359.172 35.6835C357.921 34.5008 357.313 32.6424 357.313 30.1082V13.5851L353.157 13.7202V11.5577C353.664 11.5915 354.272 11.6253 354.982 11.6253C355.691 11.6591 356.468 11.6591 357.313 11.6591C357.313 10.4764 357.279 9.46275 357.212 8.55043C357.178 7.63811 357.144 6.86096 357.077 6.18516C357.009 5.54316 356.942 4.96874 356.874 4.49568C356.773 4.05642 356.705 3.65094 356.637 3.34683V3.24546H362.348V3.34683C362.246 3.65094 362.145 4.05642 362.078 4.49568C361.976 4.96874 361.909 5.54316 361.841 6.18516C361.807 6.86096 361.74 7.63812 361.706 8.51665C361.672 9.42897 361.638 10.4764 361.638 11.6591C362.652 11.6253 363.666 11.6253 364.679 11.5915C365.659 11.5577 366.572 11.5239 367.416 11.4901C368.227 11.4563 368.903 11.4226 369.477 11.3888C370.052 11.3212 370.424 11.2874 370.593 11.2536L370.153 13.7878C369.308 13.754 368.43 13.754 367.518 13.7202C366.707 13.6865 365.828 13.6527 364.781 13.6527C363.767 13.6189 362.72 13.6189 361.638 13.5851V30.615C361.638 31.6287 361.74 32.4735 361.942 33.1155C362.179 33.7237 362.483 34.2305 362.821 34.6022C363.193 34.9739 363.564 35.2104 364.037 35.3456C364.477 35.4807 364.95 35.5483 365.423 35.5483ZM373.836 24.2626C373.836 22.4042 374.174 20.6809 374.85 19.0928C375.56 17.5047 376.506 16.1193 377.722 14.9367C378.939 13.7878 380.358 12.8755 382.013 12.1997C383.669 11.5577 385.426 11.2198 387.318 11.2198C389.211 11.2198 390.968 11.5239 392.59 12.1321C394.245 12.7741 395.664 13.6527 396.881 14.7677C398.097 15.9166 399.077 17.3019 399.787 18.9238C400.463 20.5795 400.834 22.4042 400.834 24.4315C400.834 26.121 400.53 27.7429 399.922 29.331C399.347 30.8854 398.469 32.2707 397.32 33.4872C396.137 34.7036 394.752 35.6497 393.063 36.3593C391.373 37.0689 389.447 37.4405 387.285 37.4405C385.426 37.4405 383.703 37.1364 382.047 36.5282C380.425 35.92 379.006 35.0415 377.79 33.8926C376.573 32.7776 375.593 31.3922 374.884 29.7703C374.174 28.1484 373.836 26.3238 373.836 24.2626ZM387.859 35.6497C389.042 35.6497 390.089 35.4132 391.069 34.9401C392.083 34.4671 392.927 33.8251 393.637 32.9465C394.347 32.068 394.887 30.9867 395.293 29.7365C395.664 28.4863 395.867 27.0671 395.867 25.479C395.867 23.722 395.698 22.0663 395.293 20.5457C394.921 18.9914 394.347 17.6736 393.603 16.5586C392.86 15.4435 391.914 14.5988 390.765 13.9568C389.65 13.3148 388.298 13.0107 386.778 13.0107C385.629 13.0107 384.548 13.2472 383.568 13.6865C382.588 14.1595 381.743 14.8015 381.033 15.68C380.324 16.5248 379.749 17.5723 379.378 18.8225C378.972 20.0727 378.77 21.4919 378.77 23.08C378.77 24.837 378.972 26.4927 379.344 28.047C379.749 29.5676 380.324 30.9192 381.067 32.0342C381.844 33.1831 382.791 34.0616 383.906 34.6698C385.021 35.3118 386.338 35.6497 387.859 35.6497ZM423.372 20.3092C423.372 18.1467 422.933 16.5248 422.054 15.5111C421.176 14.4974 420.027 13.9906 418.54 13.9906C417.999 13.9906 417.425 14.0919 416.749 14.3285C416.107 14.5312 415.431 14.8353 414.722 15.207C414.046 15.5787 413.336 16.0179 412.661 16.491C411.951 16.9978 411.309 17.5385 410.701 18.0791L410.633 21.3229V27.3375C410.633 28.7228 410.667 29.9393 410.701 30.9867C410.735 32.0342 410.768 32.9465 410.836 33.7237C410.903 34.4671 410.971 35.1091 411.072 35.6159C411.14 36.1227 411.241 36.562 411.343 36.8999V37.0013H405.632V36.8999C405.734 36.562 405.801 36.1227 405.903 35.6159C406.004 35.1091 406.072 34.4671 406.139 33.7237C406.173 32.9465 406.241 32.0342 406.274 30.9867C406.308 29.9393 406.342 28.7228 406.342 27.3375V21.3229C406.342 19.9375 406.308 18.7211 406.274 17.6736C406.241 16.6261 406.173 15.7138 406.139 14.9367C406.072 14.1933 406.004 13.5513 405.903 13.0445C405.801 12.5376 405.734 12.0983 405.632 11.7604V11.6591H411.343V11.7604C411.208 12.1659 411.106 12.7066 411.039 13.3148C410.971 13.9568 410.87 14.8015 410.802 15.8152C411.478 15.2408 412.188 14.7001 412.998 14.1257C413.776 13.5851 414.587 13.0782 415.431 12.639C416.276 12.1997 417.121 11.828 417.999 11.5577C418.878 11.2874 419.723 11.1522 420.567 11.1522C421.851 11.1522 422.966 11.3888 423.845 11.828C424.757 12.2673 425.501 12.8755 426.041 13.5851C426.616 14.3285 427.021 15.1394 427.291 16.0855C427.562 16.9978 427.663 17.9439 427.663 18.9238V27.3375C427.663 28.7228 427.697 29.9393 427.731 30.9867C427.765 32.0342 427.798 32.9465 427.866 33.7237C427.933 34.4671 428.001 35.1091 428.102 35.6159C428.17 36.1227 428.271 36.562 428.373 36.8999V37.0013H422.662V36.8999C422.764 36.562 422.831 36.1227 422.933 35.6159C423.034 35.1091 423.102 34.4671 423.169 33.7237C423.203 32.9465 423.27 32.0342 423.304 30.9867C423.338 29.9393 423.372 28.7228 423.372 27.3375V20.3092ZM435.232 21.3229C435.232 19.9375 435.232 18.7211 435.198 17.6736C435.131 16.6261 435.097 15.7138 435.029 14.9367C434.995 14.1933 434.894 13.5513 434.827 13.0445C434.725 12.5376 434.624 12.0983 434.522 11.7604V11.6591H440.233V11.7604C440.131 12.0983 440.064 12.5376 439.963 13.0445C439.895 13.5513 439.827 14.1933 439.76 14.9367C439.692 15.7138 439.625 16.6261 439.591 17.6736C439.557 18.7211 439.557 19.9375 439.557 21.3229V27.3375C439.557 28.7228 439.557 29.9393 439.591 30.9867C439.625 32.0342 439.692 32.9465 439.76 33.7237C439.827 34.4671 439.895 35.1091 439.963 35.6159C440.064 36.1227 440.131 36.562 440.233 36.8999V37.0013H434.522V36.8999C434.624 36.562 434.725 36.1227 434.827 35.6159C434.894 35.1091 434.995 34.4671 435.029 33.7237C435.097 32.9465 435.131 32.0342 435.198 30.9867C435.232 29.9393 435.232 28.7228 435.232 27.3375V21.3229ZM434.725 4.15779C434.725 3.7861 434.793 3.44821 434.928 3.1441C435.063 2.80621 435.266 2.53589 435.502 2.29936C435.739 2.06283 436.009 1.8601 436.313 1.72494C436.651 1.58978 436.989 1.5222 437.361 1.5222C437.766 1.5222 438.104 1.58978 438.442 1.72494C438.746 1.8601 439.016 2.06283 439.253 2.29936C439.523 2.53589 439.692 2.80621 439.827 3.1441C439.963 3.44821 440.064 3.7861 440.064 4.15779C440.064 4.90116 439.794 5.54316 439.287 6.05001C438.78 6.59064 438.138 6.82717 437.361 6.82717C436.989 6.82717 436.651 6.75959 436.313 6.62443C436.009 6.48927 435.739 6.28653 435.502 6.05001C435.266 5.81348 435.063 5.54316 434.928 5.20526C434.793 4.90116 434.725 4.52947 434.725 4.15779ZM445.234 24.2626C445.234 22.4042 445.572 20.6809 446.247 19.0928C446.957 17.5047 447.903 16.1193 449.12 14.9367C450.336 13.7878 451.755 12.8755 453.411 12.1997C455.067 11.5577 456.824 11.2198 458.75 11.2198C460.608 11.2198 462.365 11.5239 463.987 12.1321C465.643 12.7741 467.062 13.6527 468.278 14.7677C469.495 15.9166 470.475 17.3019 471.184 18.9238C471.86 20.5795 472.232 22.4042 472.232 24.4315C472.232 26.121 471.928 27.7429 471.319 29.331C470.745 30.8854 469.866 32.2707 468.718 33.4872C467.569 34.7036 466.149 35.6497 464.46 36.3593C462.804 37.0689 460.878 37.4405 458.682 37.4405C456.824 37.4405 455.1 37.1364 453.478 36.5282C451.823 35.92 450.404 35.0415 449.187 33.8926C447.971 32.7776 446.991 31.3922 446.281 29.7703C445.572 28.1484 445.234 26.3238 445.234 24.2626ZM459.256 35.6497C460.439 35.6497 461.487 35.4132 462.466 34.9401C463.48 34.4671 464.325 33.8251 465.034 32.9465C465.744 32.068 466.285 30.9867 466.69 29.7365C467.062 28.4863 467.265 27.0671 467.265 25.479C467.265 23.722 467.096 22.0663 466.69 20.5457C466.318 18.9914 465.744 17.6736 465.001 16.5586C464.257 15.4435 463.311 14.5988 462.162 13.9568C461.047 13.3148 459.696 13.0107 458.175 13.0107C457.026 13.0107 455.945 13.2472 454.965 13.6865C453.985 14.1595 453.14 14.8015 452.431 15.68C451.721 16.5248 451.147 17.5723 450.775 18.8225C450.37 20.0727 450.167 21.4919 450.167 23.08C450.167 24.837 450.37 26.4927 450.741 28.047C451.147 29.5676 451.721 30.9192 452.465 32.0342C453.242 33.1831 454.188 34.0616 455.303 34.6698C456.452 35.3118 457.736 35.6497 459.256 35.6497ZM91.8959 91.5715C91.9972 91.2336 92.0648 90.7943 92.1662 90.2875C92.2338 89.7806 92.3351 89.1386 92.3689 88.3953C92.4365 87.6181 92.5041 86.7396 92.5379 85.6921C92.5717 84.6446 92.5717 83.3944 92.5717 82.009V65.8914C92.5717 64.506 92.5717 63.2558 92.5379 62.2083C92.5041 61.1608 92.4365 60.2485 92.3689 59.5052C92.3351 58.728 92.2338 58.086 92.1662 57.5791C92.0648 57.0723 91.9972 56.633 91.8959 56.2951V56.1938H97.8091V56.2951C97.7077 56.633 97.6063 57.0723 97.5049 57.5791C97.4374 58.086 97.3698 58.728 97.3022 59.5052C97.2346 60.2485 97.2008 61.1608 97.1333 62.2083C97.0995 63.2558 97.0995 64.506 97.0995 65.8914V82.009C97.0995 83.3944 97.0995 84.6446 97.1333 85.6921C97.2008 86.7396 97.2346 87.6181 97.3022 88.3953C97.3698 89.1386 97.4374 89.7806 97.5049 90.2875C97.6063 90.7943 97.7077 91.2336 97.8091 91.5715V91.6729H91.8959V91.5715ZM103.317 91.5715C103.519 91.335 103.722 90.9295 103.959 90.4226C104.161 89.882 104.364 89.24 104.499 88.429C104.668 87.2802 104.871 85.9962 105.108 84.5432C105.31 83.0903 105.547 81.5698 105.783 80.0154C106.02 78.4273 106.256 76.8054 106.493 75.1497C106.73 73.494 106.966 71.8384 107.203 70.2502C107.405 68.6283 107.642 67.074 107.845 65.5873C108.047 64.1005 108.216 62.7152 108.385 61.4987C108.554 60.2485 108.689 59.1673 108.791 58.2549C108.926 57.3426 108.993 56.6668 109.027 56.1938H112.17L127.747 85.2866L143.188 56.1938H145.554L149.609 85.5907C149.71 86.503 149.845 87.314 149.98 87.956C150.115 88.6318 150.25 89.2062 150.386 89.6793C150.487 90.1523 150.622 90.524 150.757 90.8281C150.893 91.1322 150.994 91.4025 151.129 91.5715V91.6729H144.878V91.5715C144.946 91.4025 145.047 91.0984 145.114 90.693C145.182 90.2875 145.216 89.7806 145.216 89.2062C145.216 89.0035 145.216 88.7669 145.182 88.5642C145.182 88.3277 145.148 88.0912 145.114 87.8208L141.972 64.1005L127.375 91.5715L125.685 91.4025L110.987 63.864C110.379 67.7836 109.906 71.3991 109.466 74.7105C109.264 76.1296 109.095 77.5488 108.926 78.9342C108.723 80.3533 108.588 81.6711 108.419 82.8876C108.284 84.104 108.182 85.1852 108.115 86.1314C108.014 87.0437 107.98 87.7533 107.98 88.1925C107.98 88.7669 107.98 89.24 108.014 89.6793C108.047 90.1185 108.081 90.4564 108.115 90.7605C108.182 91.0984 108.216 91.4025 108.284 91.6729H103.317V91.5715ZM154.913 91.5715C155.082 91.335 155.285 90.9295 155.522 90.4226C155.758 89.882 155.927 89.24 156.062 88.429C156.231 87.2802 156.434 85.9962 156.671 84.5432C156.907 83.0903 157.11 81.5698 157.346 80.0154C157.617 78.4273 157.853 76.8054 158.09 75.1497C158.326 73.494 158.563 71.8384 158.765 70.2502C159.002 68.6283 159.205 67.074 159.407 65.5873C159.61 64.1005 159.813 62.7152 159.982 61.4987C160.151 60.2485 160.286 59.1673 160.387 58.2549C160.489 57.3426 160.556 56.6668 160.624 56.1938H163.766L179.31 85.2866L194.785 56.1938H197.117L201.171 85.5907C201.307 86.503 201.408 87.314 201.543 87.956C201.678 88.6318 201.813 89.2062 201.949 89.6793C202.084 90.1523 202.219 90.524 202.32 90.8281C202.455 91.1322 202.557 91.4025 202.692 91.5715V91.6729H196.441V91.5715C196.542 91.4025 196.61 91.0984 196.677 90.693C196.745 90.2875 196.813 89.7806 196.813 89.2062C196.813 89.0035 196.779 88.7669 196.779 88.5642C196.745 88.3277 196.745 88.0912 196.711 87.8208L193.569 64.1005L178.938 91.5715L177.248 91.4025L162.55 63.864C161.975 67.7836 161.469 71.3991 161.029 74.7105C160.86 76.1296 160.658 77.5488 160.489 78.9342C160.32 80.3533 160.151 81.6711 160.016 82.8876C159.881 84.104 159.745 85.1852 159.678 86.1314C159.576 87.0437 159.543 87.7533 159.543 88.1925C159.543 88.7669 159.576 89.24 159.61 89.6793C159.644 90.1185 159.678 90.4564 159.712 90.7605C159.745 91.0984 159.813 91.4025 159.847 91.6729H154.913V91.5715ZM224.419 55.5856C227.156 55.5856 229.724 56.0586 232.055 56.9371C234.387 57.8495 236.414 59.0997 238.103 60.7216C239.793 62.3435 241.145 64.3033 242.091 66.601C243.037 68.8649 243.51 71.3653 243.51 74.136C243.51 75.6904 243.341 77.2447 242.969 78.7652C242.631 80.2858 242.091 81.7049 241.381 83.0565C240.671 84.4081 239.827 85.6583 238.779 86.8071C237.766 87.956 236.617 88.9697 235.299 89.7806C233.981 90.6254 232.528 91.2674 230.94 91.7404C229.352 92.2135 227.662 92.45 225.838 92.45C223.067 92.45 220.533 92.0107 218.201 91.1322C215.87 90.2537 213.843 89.0035 212.153 87.3816C210.43 85.7597 209.112 83.8337 208.166 81.536C207.186 79.2721 206.713 76.7716 206.713 74.0009C206.713 72.4128 206.916 70.8922 207.254 69.3717C207.625 67.8512 208.166 66.3982 208.875 65.0129C209.551 63.6613 210.43 62.4111 211.443 61.2622C212.457 60.1134 213.606 59.0997 214.924 58.2887C216.242 57.444 217.695 56.7682 219.283 56.2951C220.871 55.8221 222.594 55.5856 224.419 55.5856ZM225.838 90.2199C227.662 90.2199 229.318 89.882 230.839 89.24C232.359 88.5642 233.677 87.6181 234.758 86.3679C235.873 85.1177 236.718 83.5633 237.326 81.7725C237.935 79.9479 238.239 77.9205 238.239 75.6228C238.239 73.0886 237.968 70.7233 237.36 68.5608C236.786 66.3982 235.907 64.506 234.758 62.9179C233.609 61.3298 232.156 60.0796 230.433 59.1673C228.71 58.2887 226.716 57.8157 224.419 57.8157C222.594 57.8157 220.905 58.1536 219.384 58.7956C217.863 59.4714 216.579 60.4175 215.464 61.6339C214.383 62.8841 213.505 64.4046 212.896 66.1955C212.288 67.9863 211.984 70.0475 211.984 72.3452C211.984 74.8456 212.288 77.2109 212.863 79.4072C213.437 81.5698 214.316 83.462 215.464 85.0839C216.613 86.672 218.066 87.9222 219.789 88.8345C221.513 89.7806 223.54 90.2199 225.838 90.2199ZM249.795 65.8914C249.795 64.506 249.761 63.2558 249.727 62.2083C249.693 61.1608 249.66 60.2485 249.592 59.5052C249.524 58.728 249.457 58.086 249.355 57.5791C249.254 57.0723 249.153 56.633 249.051 56.2951V56.1938C249.389 56.1938 249.727 56.2276 250.099 56.2276C250.403 56.2276 250.775 56.2276 251.146 56.2276H252.363C252.937 56.2276 253.748 56.1938 254.762 56.0586C255.775 55.9572 257.093 55.8897 258.681 55.8897C260.168 55.8897 261.553 56.0924 262.804 56.4641C264.054 56.8696 265.135 57.4102 266.047 58.1536C266.96 58.8631 267.703 59.7755 268.21 60.8229C268.717 61.9042 268.987 63.1206 268.987 64.4722C268.987 65.5873 268.818 66.601 268.514 67.5133C268.21 68.4256 267.771 69.2028 267.196 69.8786C266.622 70.5206 265.946 71.095 265.135 71.5342C264.324 72.0073 263.446 72.379 262.5 72.6155C263.919 72.852 265.169 73.1899 266.352 73.6968C267.5 74.2036 268.48 74.8456 269.325 75.589C270.17 76.3662 270.812 77.2447 271.251 78.2584C271.69 79.2721 271.927 80.3871 271.927 81.6373C271.927 85.1177 270.778 87.7195 268.48 89.4765C266.216 91.1998 262.77 92.0783 258.208 92.0783C257.701 92.0783 257.127 92.0445 256.451 92.0107C255.809 91.977 253.106 91.7742 252.43 91.7404C251.788 91.7066 251.18 91.6729 250.707 91.6729H249.051V91.5715C249.153 91.2336 249.254 90.7943 249.355 90.2875C249.457 89.7806 249.524 89.1386 249.592 88.3953C249.66 87.6181 249.693 86.7396 249.727 85.6921C249.761 84.6446 249.795 83.3944 249.795 82.009V65.8914ZM258.85 74.136C257.735 74.136 256.789 74.1698 256.046 74.2712C255.302 74.3388 254.694 74.4402 254.289 74.5077V82.009C254.289 83.935 254.322 85.5231 254.39 86.7734C254.458 88.0236 254.559 89.0711 254.66 89.8482C255.302 89.9496 255.911 90.0172 256.553 90.0847C257.161 90.1523 257.668 90.1861 258.039 90.1861C261.148 90.1861 263.378 89.4765 264.831 88.0912C266.25 86.7396 266.96 84.6108 266.96 81.7725C266.96 80.6237 266.791 79.61 266.453 78.6639C266.115 77.7515 265.608 76.9406 264.932 76.2648C264.29 75.589 263.446 75.0484 262.432 74.6767C261.418 74.3388 260.236 74.136 258.85 74.136ZM254.289 72.2776C254.762 72.3452 255.167 72.3452 255.539 72.379C255.877 72.379 256.282 72.379 256.688 72.379C257.803 72.379 258.85 72.21 259.763 71.9059C260.675 71.568 261.486 71.095 262.128 70.453C262.77 69.811 263.277 69 263.648 68.0201C264.02 67.074 264.189 65.959 264.189 64.6412C264.189 63.5937 264.054 62.6138 263.784 61.7353C263.513 60.8567 263.142 60.1134 262.601 59.5052C262.094 58.8631 261.452 58.3901 260.709 58.086C259.932 57.7481 259.087 57.5791 258.107 57.5791C257.465 57.5791 256.924 57.6129 256.451 57.6467C255.978 57.7143 255.573 57.7481 255.269 57.8157C254.863 57.8833 254.559 57.9846 254.289 58.086V72.2776ZM277.705 91.5715C277.806 91.2336 277.874 90.7943 277.975 90.2875C278.043 89.7806 278.144 89.1386 278.212 88.3953C278.246 87.6181 278.313 86.7396 278.347 85.6921C278.381 84.6446 278.381 83.3944 278.381 82.009V65.8914C278.381 64.506 278.381 63.2558 278.347 62.2083C278.313 61.1608 278.246 60.2485 278.212 59.5052C278.144 58.728 278.043 58.086 277.975 57.5791C277.874 57.0723 277.806 56.633 277.705 56.2951V56.1938H283.618V56.2951C283.517 56.633 283.415 57.0723 283.314 57.5791C283.246 58.086 283.179 58.728 283.111 59.5052C283.044 60.2485 283.01 61.1608 282.942 62.2083C282.908 63.2558 282.908 64.506 282.908 65.8914V82.009C282.908 83.3944 282.908 84.6446 282.942 85.6921C283.01 86.7396 283.044 87.6181 283.111 88.3953C283.179 89.1386 283.246 89.7806 283.314 90.2875C283.415 90.7943 283.517 91.2336 283.618 91.5715V91.6729H277.705V91.5715ZM296.12 89.5103C298.046 89.5103 299.837 89.4089 301.493 89.2738C303.115 89.1048 304.534 88.9021 305.75 88.6994C307.169 88.4628 308.487 88.1925 309.636 87.8884L308.926 91.8756C308.724 91.8756 308.453 91.8418 308.048 91.8418C307.642 91.808 307.203 91.808 306.73 91.7742C306.223 91.7742 305.716 91.7404 305.176 91.7404C304.635 91.7404 304.128 91.7404 303.655 91.7066C303.182 91.7066 302.743 91.7066 302.371 91.7066C302 91.6729 301.763 91.6729 301.594 91.6729H290.883V91.5715C290.984 91.2336 291.086 90.7943 291.187 90.2875C291.255 89.7806 291.356 89.1386 291.423 88.3953C291.491 87.6181 291.525 86.7396 291.559 85.6921C291.592 84.6446 291.592 83.3944 291.592 82.009V65.8914C291.592 64.506 291.592 63.2558 291.559 62.2083C291.525 61.1608 291.491 60.2485 291.423 59.5052C291.356 58.728 291.255 58.086 291.187 57.5791C291.086 57.0723 290.984 56.633 290.883 56.2951V56.1938H296.83V56.2951C296.728 56.633 296.627 57.0723 296.559 57.5791C296.458 58.086 296.391 58.728 296.323 59.5052C296.255 60.2485 296.222 61.1608 296.188 62.2083C296.12 63.2558 296.12 64.506 296.12 65.8914V89.5103ZM314.4 91.5715C314.502 91.2336 314.603 90.7943 314.671 90.2875C314.772 89.7806 314.84 89.1386 314.907 88.3953C314.975 87.6181 315.009 86.7396 315.042 85.6921C315.076 84.6446 315.11 83.3944 315.11 82.009V65.8914C315.11 64.506 315.076 63.2558 315.042 62.2083C315.009 61.1608 314.975 60.2485 314.907 59.5052C314.84 58.728 314.772 58.086 314.671 57.5791C314.603 57.0723 314.502 56.633 314.4 56.2951V56.1938H320.314V56.2951C320.212 56.633 320.111 57.0723 320.043 57.5791C319.942 58.086 319.874 58.728 319.807 59.5052C319.739 60.2485 319.705 61.1608 319.672 62.2083C319.604 63.2558 319.604 64.506 319.604 65.8914V82.009C319.604 83.3944 319.604 84.6446 319.672 85.6921C319.705 86.7396 319.739 87.6181 319.807 88.3953C319.874 89.1386 319.942 89.7806 320.043 90.2875C320.111 90.7943 320.212 91.2336 320.314 91.5715V91.6729H314.4V91.5715ZM327.578 56.1938C329.64 56.1938 331.701 56.1938 333.728 56.16C335.789 56.16 337.648 56.1262 339.337 56.0924C341.06 56.0924 342.513 56.0586 343.696 55.991C344.912 55.9572 345.723 55.8897 346.163 55.7883L344.946 59.0997C344.406 58.9307 343.764 58.7956 343.02 58.6942C342.412 58.5928 341.635 58.4915 340.756 58.4239C339.844 58.3225 338.796 58.2887 337.648 58.2887C337.242 58.2887 336.769 58.2887 336.228 58.3225C335.654 58.3225 335.147 58.3563 334.607 58.3901C334.032 58.4239 333.424 58.4577 332.816 58.4915V72.0073C334.505 72.0073 336.06 71.9397 337.411 71.8721C338.796 71.7708 339.945 71.7032 340.891 71.6018C342.04 71.5005 343.02 71.3991 343.865 71.2639L343.122 74.8456C341.973 74.7105 340.824 74.5753 339.607 74.4402C338.594 74.305 337.479 74.2036 336.296 74.136C335.08 74.0347 333.931 74.0009 332.816 74.0009V89.5103C334.776 89.5103 336.566 89.4089 338.188 89.2738C339.81 89.1048 341.229 88.9021 342.48 88.6994C343.899 88.4628 345.183 88.1925 346.365 87.8884L345.622 91.8756C345.419 91.8756 345.149 91.8418 344.743 91.8418C344.338 91.808 343.899 91.808 343.426 91.7742C342.919 91.7742 342.412 91.7404 341.871 91.7404C341.364 91.7404 340.858 91.7404 340.351 91.7066C339.878 91.7066 339.472 91.7066 339.101 91.7066C338.729 91.6729 338.459 91.6729 338.29 91.6729H327.578V91.5715C327.68 91.2336 327.781 90.7943 327.882 90.2875C327.984 89.7806 328.051 89.1386 328.119 88.3953C328.187 87.6181 328.22 86.7396 328.254 85.6921C328.288 84.6446 328.322 83.3944 328.322 82.009V65.8914C328.322 64.506 328.288 63.2558 328.254 62.2083C328.22 61.1608 328.187 60.2485 328.119 59.5052C328.051 58.728 327.984 58.086 327.882 57.5791C327.781 57.0723 327.68 56.633 327.578 56.2951V56.1938ZM353.799 56.1938L379.276 83.3268V65.8914C379.276 64.506 379.276 63.2558 379.243 62.2083C379.209 61.1608 379.175 60.2485 379.107 59.5052C379.04 58.728 378.939 58.086 378.871 57.5791C378.77 57.0723 378.668 56.633 378.567 56.2951V56.1938H382.993V56.2951C382.892 56.633 382.791 57.0723 382.723 57.5791C382.622 58.086 382.554 58.728 382.486 59.5052C382.419 60.2485 382.385 61.1608 382.351 62.2083C382.317 63.2558 382.284 64.506 382.284 65.8914V92.1797H381.405L355.928 65.0804V82.009C355.928 83.3944 355.962 84.6446 355.995 85.6921C355.995 86.7396 356.063 87.6181 356.131 88.3953C356.198 89.1386 356.266 89.7806 356.333 90.2875C356.435 90.7943 356.536 91.2336 356.637 91.5715V91.6729H352.211V91.5715C352.312 91.2336 352.414 90.7943 352.515 90.2875C352.583 89.7806 352.684 89.1386 352.752 88.3953C352.819 87.6181 352.853 86.7396 352.887 85.6921C352.921 84.6446 352.921 83.3944 352.921 82.009V65.8914C352.921 64.506 352.921 63.2558 352.887 62.2083C352.853 61.1608 352.819 60.2485 352.752 59.5052C352.684 58.728 352.583 58.086 352.515 57.5791C352.414 57.0723 352.312 56.633 352.211 56.2951V56.1938H353.799Z" fill="#525252"/>
<path d="M93.4502 116.772H89.2941V117.617H91.6594V121.469C91.0173 121.874 90.3754 122.178 89.6996 122.347C89.0576 122.55 88.2804 122.651 87.4357 122.651C86.3206 122.651 85.3745 122.482 84.5297 122.144C83.685 121.806 83.0092 121.333 82.4686 120.759C81.8942 120.151 81.4887 119.441 81.2184 118.63C80.948 117.785 80.8129 116.873 80.8129 115.893C80.8129 114.913 80.948 114.035 81.2184 113.224C81.4549 112.413 81.8604 111.703 82.3672 111.095C82.9078 110.521 83.5161 110.048 84.2932 109.744C85.0366 109.406 85.9151 109.237 86.9288 109.237C87.5708 109.237 88.2128 109.304 88.7872 109.473C89.3617 109.608 89.8685 109.777 90.3078 110.014C90.7808 110.217 91.1187 110.487 91.4228 110.791C91.7269 111.061 91.8959 111.365 91.9972 111.67H93.5178C93.3826 111.332 93.1461 110.994 92.8758 110.622C92.5717 110.217 92.1324 109.845 91.6256 109.507C91.1187 109.169 90.4429 108.899 89.6996 108.662C88.9224 108.426 88.0101 108.324 86.9626 108.324C85.78 108.324 84.6649 108.493 83.685 108.831C82.6713 109.169 81.7928 109.642 81.0494 110.284C80.3398 110.926 79.7654 111.703 79.3599 112.616C78.9545 113.528 78.7517 114.575 78.7517 115.758C78.7517 116.738 78.8869 117.718 79.2248 118.664C79.5289 119.576 80.0357 120.421 80.6777 121.164C81.3197 121.908 82.1645 122.516 83.1782 122.955C84.1919 123.395 85.4083 123.597 86.7936 123.597C87.8749 123.597 88.7872 123.496 89.632 123.259C90.4429 123.023 91.1187 122.786 91.6594 122.482V123.361H93.4502V116.772ZM97.2684 108.561V123.361H106.797V122.178H99.1944V115.995H105.716V115.048H99.1944V109.744H106.797V108.561H97.2684ZM123.422 116.772H119.232V117.617H121.597V121.469C120.989 121.874 120.347 122.178 119.671 122.347C118.995 122.55 118.252 122.651 117.407 122.651C116.292 122.651 115.312 122.482 114.501 122.144C113.656 121.806 112.981 121.333 112.44 120.759C111.866 120.151 111.46 119.441 111.19 118.63C110.919 117.785 110.784 116.873 110.784 115.893C110.784 114.913 110.919 114.035 111.156 113.224C111.426 112.413 111.832 111.703 112.339 111.095C112.879 110.521 113.487 110.048 114.265 109.744C115.008 109.406 115.886 109.237 116.866 109.237C117.542 109.237 118.15 109.304 118.725 109.473C119.333 109.608 119.84 109.777 120.279 110.014C120.718 110.217 121.09 110.487 121.394 110.791C121.665 111.061 121.867 111.365 121.935 111.67H123.455C123.354 111.332 123.117 110.994 122.813 110.622C122.509 110.217 122.104 109.845 121.597 109.507C121.056 109.169 120.414 108.899 119.671 108.662C118.894 108.426 117.981 108.324 116.934 108.324C115.751 108.324 114.636 108.493 113.656 108.831C112.643 109.169 111.764 109.642 111.021 110.284C110.311 110.926 109.737 111.703 109.331 112.616C108.926 113.528 108.723 114.575 108.723 115.758C108.723 116.738 108.858 117.718 109.196 118.664C109.5 119.576 109.973 120.421 110.649 121.164C111.291 121.908 112.136 122.516 113.15 122.955C114.163 123.395 115.38 123.597 116.765 123.597C117.846 123.597 118.759 123.496 119.57 123.259C120.414 123.023 121.09 122.786 121.597 122.482V123.361H123.422V116.772ZM127.24 108.561V123.361H129.166V116.839H130.078C130.484 116.839 130.788 116.873 131.058 116.941C131.328 117.008 131.565 117.11 131.768 117.279C131.97 117.448 132.173 117.684 132.376 117.954C132.545 118.225 132.748 118.563 133.018 118.934L134.674 121.401C134.91 121.739 135.113 122.043 135.316 122.313C135.518 122.55 135.721 122.786 135.958 122.989C136.228 123.192 136.498 123.327 136.802 123.428C137.106 123.563 137.444 123.597 137.884 123.597C138.188 123.597 138.424 123.597 138.627 123.563C138.83 123.53 139.032 123.462 139.235 123.361V122.584C139.168 122.584 139.1 122.584 138.999 122.617C138.931 122.617 138.863 122.617 138.796 122.617C138.492 122.617 138.255 122.584 138.019 122.482C137.782 122.415 137.579 122.279 137.377 122.111C137.208 121.942 137.005 121.773 136.802 121.536C136.633 121.3 136.431 121.029 136.262 120.725C135.653 119.88 135.214 119.205 134.876 118.664C134.538 118.157 134.302 117.752 134.099 117.481C133.93 117.211 133.761 117.008 133.626 116.873C133.525 116.738 133.39 116.637 133.221 116.569L132.984 116.434V116.366C133.66 116.332 134.268 116.164 134.741 115.927C135.214 115.657 135.62 115.353 135.924 114.981C136.228 114.575 136.464 114.17 136.6 113.731C136.735 113.291 136.802 112.852 136.802 112.447C136.802 112.041 136.735 111.636 136.6 111.196C136.464 110.723 136.194 110.318 135.822 109.946C135.484 109.541 134.978 109.237 134.369 108.966C133.761 108.696 132.984 108.561 132.038 108.561H127.24ZM129.166 109.507H131.295C131.835 109.507 132.308 109.575 132.748 109.744C133.153 109.879 133.525 110.115 133.829 110.386C134.167 110.656 134.403 110.994 134.538 111.365C134.707 111.737 134.775 112.143 134.775 112.616C134.775 112.987 134.707 113.359 134.572 113.764C134.437 114.136 134.2 114.508 133.896 114.812C133.592 115.116 133.254 115.386 132.815 115.589C132.376 115.792 131.903 115.893 131.328 115.893H129.166V109.507ZM141.533 108.561V117.65C141.533 118.225 141.6 118.867 141.702 119.576C141.837 120.252 142.107 120.894 142.513 121.502C142.952 122.111 143.56 122.617 144.405 123.023C145.216 123.395 146.365 123.597 147.784 123.597C148.696 123.597 149.507 123.462 150.183 123.192C150.893 122.888 151.467 122.516 151.94 122.009C152.413 121.536 152.785 120.962 153.021 120.32C153.258 119.644 153.359 118.934 153.359 118.191V108.561H152.447V117.515C152.447 117.819 152.447 118.123 152.413 118.461C152.413 118.765 152.379 119.069 152.312 119.407C152.244 119.711 152.109 120.016 151.974 120.32C151.839 120.658 151.602 120.962 151.332 121.266C150.825 121.806 150.251 122.178 149.609 122.381C148.967 122.584 148.325 122.685 147.615 122.685C147.041 122.685 146.5 122.584 146.061 122.415C145.588 122.212 145.182 121.942 144.743 121.57C144.439 121.3 144.202 121.029 144.033 120.725C143.864 120.455 143.729 120.185 143.628 119.914C143.56 119.644 143.493 119.34 143.493 119.069C143.493 118.799 143.459 118.495 143.459 118.225V108.561H141.533ZM144.878 105.25C144.878 105.554 144.979 105.824 145.216 106.027C145.419 106.263 145.689 106.365 145.993 106.365C146.331 106.365 146.567 106.263 146.804 106.027C147.041 105.824 147.142 105.554 147.142 105.25C147.142 104.912 147.041 104.641 146.804 104.439C146.567 104.202 146.331 104.101 145.993 104.101C145.689 104.101 145.419 104.202 145.216 104.439C144.979 104.641 144.878 104.912 144.878 105.25ZM147.784 105.25C147.784 105.554 147.885 105.824 148.122 106.027C148.358 106.263 148.595 106.365 148.933 106.365C149.237 106.365 149.507 106.263 149.71 106.027C149.946 105.824 150.048 105.554 150.048 105.25C150.048 104.912 149.946 104.641 149.71 104.439C149.507 104.202 149.237 104.101 148.933 104.101C148.595 104.101 148.358 104.202 148.122 104.439C147.885 104.641 147.784 104.912 147.784 105.25ZM169.511 108.561V119.88H169.409L157.718 108.324H157.583V123.361H158.563V112.041H158.664L170.389 123.597H170.49V108.561H169.511ZM175.762 123.361V108.561H180.627C181.776 108.561 182.857 108.764 183.837 109.135C184.783 109.507 185.628 110.014 186.338 110.69C187.014 111.332 187.554 112.109 187.96 113.021C188.331 113.9 188.534 114.88 188.534 115.927C188.534 117.008 188.331 117.988 187.926 118.901C187.52 119.813 186.98 120.59 186.304 121.266C185.594 121.942 184.783 122.448 183.837 122.82C182.925 123.158 181.911 123.361 180.864 123.361H175.762ZM177.688 122.415H180.019C181.168 122.415 182.148 122.246 182.959 121.84C183.77 121.469 184.412 120.962 184.952 120.32C185.459 119.711 185.865 119.036 186.101 118.259C186.338 117.481 186.439 116.738 186.439 115.961C186.439 115.116 186.304 114.305 186.034 113.528C185.73 112.751 185.324 112.041 184.783 111.467C184.243 110.859 183.567 110.386 182.756 110.014C181.979 109.676 181.033 109.507 180.019 109.507H177.688V122.415ZM191.71 108.561V123.361H201.239V122.178H193.636V115.995H200.158V115.048H193.636V109.744H201.239V108.561H191.71ZM209.889 123.361V109.744H215.532V108.561H202.32V109.744H207.963V123.361H209.889ZM225.061 108.561V117.65C225.061 118.225 225.094 118.867 225.23 119.576C225.331 120.252 225.601 120.894 226.007 121.502C226.446 122.111 227.054 122.617 227.899 123.023C228.744 123.395 229.859 123.597 231.312 123.597C232.19 123.597 233.001 123.462 233.711 123.192C234.387 122.888 234.995 122.516 235.468 122.009C235.907 121.536 236.279 120.962 236.515 120.32C236.752 119.644 236.887 118.934 236.887 118.191V108.561H235.941V117.515C235.941 117.819 235.941 118.123 235.941 118.461C235.907 118.765 235.873 119.069 235.806 119.407C235.738 119.711 235.637 120.016 235.468 120.32C235.333 120.658 235.096 120.962 234.826 121.266C234.319 121.806 233.745 122.178 233.103 122.381C232.494 122.584 231.819 122.685 231.143 122.685C230.535 122.685 230.028 122.584 229.555 122.415C229.115 122.212 228.676 121.942 228.271 121.57C227.933 121.3 227.696 121.029 227.527 120.725C227.358 120.455 227.223 120.185 227.156 119.914C227.054 119.644 227.02 119.34 226.987 119.069C226.987 118.799 226.987 118.495 226.987 118.225V108.561H225.061ZM242.53 108.561H241.111V123.361H242.023V111.298H242.124L248.646 123.597H249.018L255.708 111.365H255.775V123.361H257.701V108.561H256.248L249.389 121.266H249.322L242.53 108.561ZM268.784 108.561V109.744H277.705L268.244 123.361H281.05V122.178H271.319L280.712 108.561H268.784ZM283.382 108.561V117.65C283.382 118.225 283.449 118.867 283.55 119.576C283.652 120.252 283.922 120.894 284.361 121.502C284.767 122.111 285.409 122.617 286.22 123.023C287.065 123.395 288.18 123.597 289.633 123.597C290.545 123.597 291.322 123.462 292.032 123.192C292.707 122.888 293.316 122.516 293.789 122.009C294.262 121.536 294.6 120.962 294.836 120.32C295.073 119.644 295.208 118.934 295.208 118.191V108.561H294.262V117.515C294.262 117.819 294.262 118.123 294.262 118.461C294.228 118.765 294.194 119.069 294.127 119.407C294.059 119.711 293.958 120.016 293.789 120.32C293.654 120.658 293.451 120.962 293.147 121.266C292.64 121.806 292.065 122.178 291.457 122.381C290.815 122.584 290.139 122.685 289.464 122.685C288.855 122.685 288.349 122.584 287.876 122.415C287.436 122.212 286.997 121.942 286.592 121.57C286.254 121.3 286.017 121.029 285.848 120.725C285.679 120.455 285.544 120.185 285.477 119.914C285.375 119.644 285.341 119.34 285.308 119.069C285.308 118.799 285.308 118.495 285.308 118.225V108.561H283.382ZM306.832 123.361H312.136C313.049 123.361 313.86 123.226 314.502 122.989C315.144 122.753 315.684 122.415 316.056 122.009C316.462 121.637 316.732 121.198 316.935 120.691C317.104 120.185 317.205 119.678 317.205 119.171C317.205 118.36 317.002 117.718 316.664 117.245C316.326 116.772 315.921 116.4 315.448 116.164C314.941 115.893 314.468 115.724 313.961 115.657C313.454 115.555 313.049 115.522 312.745 115.488V115.42C313.218 115.42 313.691 115.319 314.13 115.116C314.569 114.947 314.941 114.677 315.279 114.406C315.617 114.102 315.887 113.731 316.056 113.325C316.259 112.92 316.36 112.514 316.36 112.041C316.36 111.67 316.293 111.264 316.124 110.859C315.955 110.453 315.684 110.081 315.347 109.744C315.009 109.406 314.536 109.102 313.995 108.899C313.454 108.696 312.846 108.561 312.103 108.561H306.832V123.361ZM308.758 122.415V115.961H311.055C311.765 115.961 312.339 116.062 312.846 116.231C313.353 116.434 313.792 116.67 314.13 116.975C314.434 117.279 314.705 117.65 314.84 118.056C315.009 118.461 315.11 118.901 315.11 119.34C315.11 119.847 315.009 120.286 314.84 120.658C314.671 121.029 314.434 121.367 314.13 121.637C313.826 121.874 313.488 122.077 313.083 122.212C312.677 122.347 312.238 122.415 311.799 122.415H308.758ZM308.758 115.048V109.507H311.326C311.866 109.507 312.339 109.575 312.711 109.744C313.116 109.879 313.42 110.081 313.657 110.352C313.927 110.588 314.096 110.892 314.198 111.196C314.333 111.534 314.367 111.872 314.367 112.176C314.367 112.582 314.299 112.987 314.13 113.325C313.961 113.663 313.758 113.967 313.454 114.238C313.184 114.474 312.846 114.677 312.474 114.812C312.103 114.947 311.697 115.048 311.292 115.048H308.758ZM320.787 123.361V108.561H322.713V122.178H330.315V123.361H320.787ZM333.492 108.561V123.361H343.054V122.178H335.418V115.995H341.973V115.048H335.418V109.744H343.054V108.561H333.492ZM347.041 108.561V123.361H348.967V108.561H347.041ZM354.88 123.361H360.185C361.131 123.361 361.909 123.226 362.584 122.989C363.226 122.753 363.733 122.415 364.139 122.009C364.544 121.637 364.814 121.198 364.983 120.691C365.152 120.185 365.254 119.678 365.254 119.171C365.254 118.36 365.085 117.718 364.747 117.245C364.375 116.772 363.97 116.4 363.497 116.164C363.024 115.893 362.517 115.724 362.01 115.657C361.503 115.555 361.098 115.522 360.794 115.488V115.42C361.3 115.42 361.74 115.319 362.179 115.116C362.618 114.947 363.024 114.677 363.328 114.406C363.666 114.102 363.936 113.731 364.139 113.325C364.341 112.92 364.443 112.514 364.443 112.041C364.443 111.67 364.341 111.264 364.172 110.859C364.004 110.453 363.767 110.081 363.395 109.744C363.057 109.406 362.618 109.102 362.078 108.899C361.537 108.696 360.895 108.561 360.152 108.561H354.88V123.361ZM356.806 122.415V115.961H359.138C359.814 115.961 360.422 116.062 360.929 116.231C361.436 116.434 361.841 116.67 362.179 116.975C362.517 117.279 362.753 117.65 362.922 118.056C363.091 118.461 363.159 118.901 363.159 119.34C363.159 119.847 363.091 120.286 362.888 120.658C362.72 121.029 362.483 121.367 362.179 121.637C361.909 121.874 361.537 122.077 361.131 122.212C360.76 122.347 360.32 122.415 359.881 122.415H356.806ZM356.806 115.048V109.507H359.374C359.949 109.507 360.388 109.575 360.794 109.744C361.165 109.879 361.503 110.081 361.74 110.352C361.976 110.588 362.179 110.892 362.28 111.196C362.382 111.534 362.449 111.872 362.449 112.176C362.449 112.582 362.348 112.987 362.213 113.325C362.044 113.663 361.807 113.967 361.537 114.238C361.233 114.474 360.895 114.677 360.523 114.812C360.152 114.947 359.78 115.048 359.341 115.048H356.806ZM368.835 108.561V123.361H378.398V122.178H370.761V115.995H377.317V115.048H370.761V109.744H378.398V108.561H368.835ZM393.468 108.561V119.88H393.4L381.675 108.324H381.574V123.361H382.52V112.041H382.622L394.347 123.597H394.448V108.561H393.468Z" fill="#BF0000"/>
</g>
<defs>
<clipPath id="clip0_3_2">
<rect width="473" height="124" fill="white"/>
</clipPath>
</defs>
</svg>
