<svg width="100" height="100" viewBox="0 0 100 100" fill="none" xmlns="http://www.w3.org/2000/svg">
<path d="M74.7014 55.8226C74.7196 55.4344 74.7287 55.0439 74.7287 54.6512C74.7287 41.0367 63.692 30 50.0776 30C36.4631 30 25.4264 41.0367 25.4264 54.6512C25.4264 55.0439 25.4355 55.4344 25.4537 55.8226L34.4186 46.7442L44.6512 49.7287L50.0776 43.4884L55.5039 49.7287L65.7365 46.7442L74.7014 55.8226Z" fill="#FBE3C4"/>
<path d="M45.5814 48.217L34.4186 45.1162L41.2403 53.0232L45.5814 48.217Z" fill="#8F8F8F"/>
<path d="M22.1705 59.3798L3.2558 63.8759H22.1705L34.4186 49.7674V45.1162L22.1705 59.3798Z" fill="#8F8F8F"/>
<path d="M34.4186 49.7674V45.1162L41.2403 53.0232L39.2248 55.3488L34.4186 49.7674Z" fill="#CCCCCC"/>
<path d="M3.25391 74L3.25391 72.094L30.5 72.0002L50.0823 49.4436V52.256L31 74H3.25391Z" fill="#8F8F8F"/>
<path d="M30.8527 64.9611L50.0775 42.7905V49.7673L30.8527 72.0929H3.2558L30.8527 64.9611Z" fill="#BF0000"/>
<path d="M54.5737 48.217L65.7365 45.1162L58.9148 53.0232L54.5737 48.217Z" fill="#8F8F8F"/>
<path d="M77.9845 59.3798L96.8992 63.8759H77.9845L65.7365 49.7674V45.1162L77.9845 59.3798Z" fill="#8F8F8F"/>
<path d="M65.7364 49.7674V45.1162L58.9147 53.0232L60.9302 55.3488L65.7364 49.7674Z" fill="#CCCCCC"/>
<path d="M96.8772 74V72.0903L69.5 72.0231L50.0775 49.5V52.2479L68.6822 73.9327L96.8772 74Z" fill="#8F8F8F"/>
<path d="M69.3023 64.9611L50.0775 42.7905V49.7673L69.3023 72.0929H96.8992L69.3023 64.9611Z" fill="#BF0000"/>
<path d="M49.6124 64.3411H45.4264V68.5271H49.6124V64.3411Z" fill="#8F8F8F"/>
<path d="M54.7287 64.3411H50.5427V68.5271H54.7287V64.3411Z" fill="#8F8F8F"/>
<path d="M49.6124 69.4573H45.4264V73.6433H49.6124V69.4573Z" fill="#8F8F8F"/>
<path d="M54.7287 69.4573H50.5427V73.6433H54.7287V69.4573Z" fill="#8F8F8F"/>
</svg>
